<svg width="324" height="90" viewBox="0 0 324 90" fill="none" xmlns="http://www.w3.org/2000/svg">
<rect width="324" height="90" rx="15" fill="white"/>
<path fill-rule="evenodd" clip-rule="evenodd" d="M19 22.3846C17.8336 22.3846 16.8846 23.3336 16.8846 24.5C16.8846 25.6664 17.8336 26.6154 19 26.6154C20.1664 26.6154 21.1154 25.6664 21.1154 24.5C21.1154 23.3336 20.1664 22.3846 19 22.3846ZM19 19.5C21.7614 19.5 24 21.7386 24 24.5C24 27.2614 21.7614 29.5 19 29.5C16.2386 29.5 14 27.2614 14 24.5C14 21.7386 16.2386 19.5 19 19.5Z" fill="#FFCD29"/>
<path d="M31.6023 20.1678V28H30.6179V21.1847H30.5746L28.6707 22.4504V21.466L30.6179 20.1678H31.6023ZM36.9356 28.1082C35.5184 28.1082 34.4474 27.2319 34.3933 26.0311H35.3345C35.4102 26.7343 36.0918 27.2536 36.9356 27.2536C37.9524 27.2536 38.6881 26.5071 38.6881 25.5227C38.6881 24.5058 37.92 23.7594 36.8706 23.7486C36.2108 23.7377 35.7023 23.9433 35.4102 24.4517H34.4691L35.0208 20.1678H39.2614V21.0333H35.8321L35.54 23.3267H35.6158C35.9619 23.0562 36.492 22.8723 37.0437 22.8723C38.5366 22.8723 39.64 23.9757 39.64 25.5011C39.64 27.0156 38.4933 28.1082 36.9356 28.1082ZM42.3553 26.9615C41.9767 26.9615 41.6522 26.6478 41.663 26.2583C41.6522 25.8797 41.9767 25.566 42.3553 25.566C42.734 25.566 43.0477 25.8797 43.0477 26.2583C43.0477 26.6478 42.734 26.9615 42.3553 26.9615ZM42.3553 22.6127C41.9767 22.6127 41.6522 22.299 41.663 21.9095C41.6522 21.5309 41.9767 21.2172 42.3553 21.2172C42.734 21.2172 43.0477 21.5309 43.0477 21.9095C43.0477 22.299 42.734 22.6127 42.3553 22.6127ZM47.7535 28.1082C46.0118 28.1082 45.0165 26.6478 45.0165 24.0839C45.0165 21.5417 46.0334 20.0597 47.7535 20.0597C49.4735 20.0597 50.4904 21.5417 50.4904 24.0839C50.4904 26.6478 49.4843 28.1082 47.7535 28.1082ZM47.7535 27.2427C48.8785 27.2427 49.5384 26.1069 49.5384 24.0839C49.5384 22.061 48.8785 20.9034 47.7535 20.9034C46.6284 20.9034 45.9577 22.061 45.9577 24.0839C45.9577 26.1069 46.6176 27.2427 47.7535 27.2427ZM55.0447 28.1082C53.3031 28.1082 52.3078 26.6478 52.3078 24.0839C52.3078 21.5417 53.3247 20.0597 55.0447 20.0597C56.7648 20.0597 57.7817 21.5417 57.7817 24.0839C57.7817 26.6478 56.7756 28.1082 55.0447 28.1082ZM55.0447 27.2427C56.1698 27.2427 56.8297 26.1069 56.8297 24.0839C56.8297 22.061 56.1698 20.9034 55.0447 20.9034C53.9197 20.9034 53.249 22.061 53.249 24.0839C53.249 26.1069 53.9089 27.2427 55.0447 27.2427ZM63.1474 23.662V24.5166H59.7181V23.662H63.1474ZM68.0262 20.1678V28H67.0418V21.1847H66.9985L65.0946 22.4504V21.466L67.0418 20.1678H68.0262ZM71.0552 28L74.6468 21.0874V21.0333H70.5035V20.1678H75.6529V21.0765L72.0721 28H71.0552ZM77.9138 26.9615C77.5352 26.9615 77.2106 26.6478 77.2215 26.2583C77.2106 25.8797 77.5352 25.566 77.9138 25.566C78.2924 25.566 78.6062 25.8797 78.6062 26.2583C78.6062 26.6478 78.2924 26.9615 77.9138 26.9615ZM77.9138 22.6127C77.5352 22.6127 77.2106 22.299 77.2215 21.9095C77.2106 21.5309 77.5352 21.2172 77.9138 21.2172C78.2924 21.2172 78.6062 21.5309 78.6062 21.9095C78.6062 22.299 78.2924 22.6127 77.9138 22.6127ZM83.3119 28.1082C81.5703 28.1082 80.575 26.6478 80.575 24.0839C80.575 21.5417 81.5919 20.0597 83.3119 20.0597C85.032 20.0597 86.0489 21.5417 86.0489 24.0839C86.0489 26.6478 85.0428 28.1082 83.3119 28.1082ZM83.3119 27.2427C84.437 27.2427 85.0969 26.1069 85.0969 24.0839C85.0969 22.061 84.437 20.9034 83.3119 20.9034C82.1869 20.9034 81.5162 22.061 81.5162 24.0839C81.5162 26.1069 82.1761 27.2427 83.3119 27.2427ZM90.6032 28.1082C88.8615 28.1082 87.8663 26.6478 87.8663 24.0839C87.8663 21.5417 88.8832 20.0597 90.6032 20.0597C92.3233 20.0597 93.3402 21.5417 93.3402 24.0839C93.3402 26.6478 92.3341 28.1082 90.6032 28.1082ZM90.6032 27.2427C91.7283 27.2427 92.3882 26.1069 92.3882 24.0839C92.3882 22.061 91.7283 20.9034 90.6032 20.9034C89.4782 20.9034 88.8074 22.061 88.8074 24.0839C88.8074 26.1069 89.4673 27.2427 90.6032 27.2427Z" fill="black"/>
<path d="M17.7324 38.7598C19.5918 38.7598 20.9316 40.4551 20.9453 43.1211C20.9316 45.8145 19.5918 47.4961 17.7324 47.4961C15.8594 47.4961 14.5059 45.8145 14.5195 43.1211C14.5059 40.4551 15.8594 38.7598 17.7324 38.7598ZM17.7324 40.127C16.6934 40.127 15.9824 41.2344 15.9824 43.1211C15.9824 45.0215 16.6934 46.1289 17.7324 46.1289C18.7852 46.1289 19.4824 45.0215 19.4824 43.1211C19.4824 41.2344 18.7852 40.127 17.7324 40.127ZM24.0898 37.8574V42.6016H25.9902V43.8867H24.0898V50.2168H22.5723V37.8574H24.0898ZM36.791 37.8574V50.2305H35.2598V37.8574H36.791ZM30.1328 38.7598C31.9922 38.7598 33.3457 40.4551 33.3594 43.1211C33.3457 45.8145 31.9922 47.4961 30.1328 47.4961C28.2598 47.4961 26.9062 45.8145 26.9062 43.1211C26.9062 40.4551 28.2598 38.7598 30.1328 38.7598ZM30.1328 40.127C29.0801 40.127 28.3691 41.2344 28.3691 43.1211C28.3691 45.0215 29.0801 46.1289 30.1328 46.1289C31.1719 46.1289 31.8828 45.0215 31.8828 43.1211C31.8828 41.2344 31.1719 40.127 30.1328 40.127ZM43.3672 39.1426V43.6816H40.4414V46.0059C41.7197 45.9922 42.9297 45.9375 44.3242 45.6777L44.4473 46.9219C42.793 47.2227 41.3984 47.2637 39.8398 47.2637H38.9785V42.4785H41.9043V40.3594H38.9648V39.1426H43.3672ZM49.2461 37.8574V50.2168H47.7969V37.8574H49.2461ZM46.7031 38.1172V49.5879H45.2676V43.3945H43.9141V42.1504H45.2676V38.1172H46.7031ZM61.0039 37.8711V46.7988H59.4727V37.8711H61.0039ZM61.3457 48.7402V49.9707H52.8281V45.8965H54.3594V48.7402H61.3457ZM54.2637 38.6777C56.1367 38.6777 57.5859 39.9766 57.5859 41.7676C57.5859 43.5996 56.1367 44.8711 54.2637 44.8711C52.377 44.8711 50.9277 43.5996 50.9277 41.7676C50.9277 39.9766 52.377 38.6777 54.2637 38.6777ZM54.2637 40.0039C53.2109 40.0039 52.4043 40.7012 52.418 41.7676C52.4043 42.8613 53.2109 43.5449 54.2637 43.5449C55.2891 43.5449 56.0957 42.8613 56.0957 41.7676C56.0957 40.7012 55.2891 40.0039 54.2637 40.0039ZM76.6992 37.8574V47.1133H75.25V37.8574H76.6992ZM74.2246 38.0762V46.7441H72.7754V42.041H71.1211V40.7969H72.7754V38.0762H74.2246ZM77.041 48.7402V49.9707H68.4277V46.0059H69.9453V48.7402H77.041ZM69.9453 40.3867C69.9453 41.8223 70.6562 43.2715 72.2285 43.9688L71.3809 45.1445C70.3418 44.666 69.6309 43.832 69.2207 42.8203C68.7832 43.9551 68.0107 44.9121 66.8828 45.4453L66.0488 44.2969C67.6895 43.5039 68.4688 41.8496 68.4688 40.3867V38.7051H69.9453V40.3867ZM88.5938 37.8574V50.2305H87.0898V43.5586H84.7656V42.3281H87.0898V37.8574H88.5938ZM84.5742 38.9238V40.168H80.3223V42.3828H84.082V43.5859H80.3223V46.1289C82.2021 46.1221 83.6104 46.0605 85.2031 45.8008L85.3535 47.0312C83.5488 47.3047 81.9766 47.373 79.7617 47.3867H78.791V38.9238H84.5742ZM103.783 38.9922V40.25C103.783 41.7812 103.783 43.4492 103.332 45.8691L101.842 45.7188C102.266 43.4355 102.266 41.7402 102.266 40.25V40.209H94.7871V38.9922H103.783ZM104.918 47.373V48.6172H93.6523V47.373H96.1816V43.4355H97.6992V47.373H99.2715V43.4355H100.762V47.373H104.918ZM117.018 43.6953V44.9121H114.201V46.1973H115.637V50.2168H114.119V47.3867H106.996V46.1973H108.527V44.9121H105.752V43.6953H117.018ZM111.371 38.1172C114.078 38.1172 115.814 39.0332 115.828 40.5234C115.814 42.0273 114.078 42.9434 111.371 42.9434C108.664 42.9434 106.914 42.0273 106.914 40.5234C106.914 39.0332 108.664 38.1172 111.371 38.1172ZM111.371 39.3066C109.566 39.3066 108.486 39.7441 108.5 40.5234C108.486 41.3301 109.566 41.7676 111.371 41.7676C113.176 41.7676 114.256 41.3301 114.256 40.5234C114.256 39.7441 113.176 39.3066 111.371 39.3066ZM110.045 46.1973H112.697V44.9121H110.045V46.1973Z" fill="black"/>
<path d="M19.168 60.1289C21.4121 60.1348 23.0469 61.2422 23.0469 62.918C23.0469 64.4883 21.6758 65.5371 19.7188 65.6953V67.7578H23.9961V68.6836H14.3867V67.7578H18.6172V65.6953C16.6719 65.5371 15.2949 64.4883 15.3008 62.918C15.2949 61.2422 16.9355 60.1348 19.168 60.1289ZM16.3789 62.918C16.3789 64.0957 17.5508 64.8281 19.168 64.8398C20.7969 64.8281 21.9629 64.0957 21.9688 62.918C21.9629 61.7812 20.7969 61.0312 19.168 61.043C17.5508 61.0312 16.3789 61.7812 16.3789 62.918ZM34.3672 67.7461V68.6836H24.7578V67.7461H34.3672ZM25.5781 61.418V60.5039H33.4883V61.418H31.8828V64.9219H33.4531V65.8125H25.6016V64.9219H27.1719V61.418H25.5781ZM28.2734 64.9219H30.793V61.418H28.2734V64.9219ZM43.3086 59.4961V63.5977H44.9961V64.5352H43.3086V70.0195H42.207V59.4961H43.3086ZM35.5391 61.3477V60.4453H40.3438V64.3008H36.6641V66.5742C38.4629 66.5684 39.8047 66.5039 41.3398 66.2227L41.4453 67.125C39.8047 67.4297 38.3867 67.5 36.418 67.5117H35.5625V63.3984H39.2422V61.3477H35.5391ZM54.207 59.5078V67.1367H53.0938V59.5078H54.207ZM45.7109 62.8125C45.7168 61.2949 46.9238 60.2168 48.5117 60.2109C50.0938 60.2168 51.3008 61.2949 51.3008 62.8125C51.3008 64.3535 50.0938 65.4258 48.5117 65.4258C46.9238 65.4258 45.7168 64.3535 45.7109 62.8125ZM46.8008 62.8125C46.7949 63.8027 47.5332 64.4531 48.5117 64.4531C49.4727 64.4531 50.2109 63.8027 50.2109 62.8125C50.2109 61.8457 49.4727 61.1836 48.5117 61.1836C47.5332 61.1836 46.7949 61.8457 46.8008 62.8125ZM47.3398 69.7734V66.3633H48.4648V68.8711H54.5234V69.7734H47.3398ZM67.2734 61.8516V62.7539H64.1445V63.8086H68.3984V64.7109H58.7891V63.8086H63.043V62.7539H60.0664V59.6484H61.1562V61.8516H67.2734ZM59.9609 66.3516V65.4844H67.1914V68.0039H61.0977V68.9883H67.5547V69.8672H59.9844V67.207H66.0898V66.3516H59.9609ZM77.8672 59.4961V70.0195H76.7539V59.4961H77.8672ZM69.5352 63.9609C69.5352 61.7168 70.666 60.2871 72.2539 60.2812C73.8125 60.2871 74.9609 61.7168 74.9609 63.9609C74.9609 66.2285 73.8125 67.6582 72.2539 67.6523C70.666 67.6582 69.5352 66.2285 69.5352 63.9609ZM70.6133 63.9609C70.6074 65.6309 71.2754 66.6562 72.2539 66.6562C73.2148 66.6562 73.8828 65.6309 73.8828 63.9609C73.8828 62.3145 73.2148 61.2832 72.2539 61.2773C71.2754 61.2832 70.6074 62.3145 70.6133 63.9609ZM91.0039 60.5039V61.6289C90.9922 62.9473 90.9922 64.3301 90.6172 66.3398L89.5273 66.2227C89.8965 64.3242 89.8965 62.918 89.8906 61.6289V61.4062H83.457V60.5039H91.0039ZM82.4727 68.5781V67.6523H84.7344V64.2539H85.8477V67.6523H87.3594V64.2539H88.4492V67.6523H92.0469V68.5781H82.4727ZM102.418 64.5V65.4023H99.9453V66.6211H101.246V69.9961H100.121V67.5H93.9102V66.6211H95.293V65.4023H92.8438V64.5H102.418ZM93.875 61.7578C93.8691 60.4863 95.3281 59.7246 97.625 59.7305C99.916 59.7246 101.369 60.4863 101.375 61.7578C101.369 63.0234 99.916 63.791 97.625 63.7852C95.3281 63.791 93.8691 63.0234 93.875 61.7578ZM95.0234 61.7578C95.0176 62.4902 96.0078 62.918 97.625 62.918C99.2305 62.918 100.232 62.4902 100.227 61.7578C100.232 61.0312 99.2305 60.6035 97.625 60.6094C96.0078 60.6035 95.0176 61.0312 95.0234 61.7578ZM96.4062 66.6211H98.8555V65.4023H96.4062V66.6211ZM115.754 67.7461V68.6836H106.145V67.7461H115.754ZM106.965 61.418V60.5039H114.875V61.418H113.27V64.9219H114.84V65.8125H106.988V64.9219H108.559V61.418H106.965ZM109.66 64.9219H112.18V61.418H109.66V64.9219ZM126.125 67.8047V68.7422H116.516V67.8047H120.746V65.9648H117.688V62.625H123.852V61.1484H117.664V60.2344H124.953V63.5156H118.789V65.0508H125.199V65.9648H121.848V67.8047H126.125ZM135.207 60.5625V61.6875C135.207 63.0469 135.207 64.5176 134.82 66.7617L133.684 66.6562C134.105 64.5527 134.105 63.0117 134.105 61.6875V61.4766H127.918V60.5625H135.207ZM126.887 68.5078V67.582H136.461V68.5078H126.887ZM146.211 59.5078V65.7422H145.156V63.0117H143.867V65.625H142.824V59.6953H143.867V62.0977H145.156V59.5078H146.211ZM137.703 61.0547V60.1641H141.688V63.1172H138.805V64.4297C140.105 64.4238 141.096 64.3652 142.25 64.1367L142.367 65.0273C141.043 65.2734 139.953 65.3086 138.418 65.3086H137.727V62.2617H140.621V61.0547H137.703ZM139.191 69.8672V66.2109H146.211V69.8672H139.191ZM140.305 68.9648H145.121V67.1016H140.305V68.9648Z" fill="#666666"/>
</svg>
