<svg width="318" height="389" viewBox="0 0 318 389" fill="none" xmlns="http://www.w3.org/2000/svg">
<rect x="100" y="110" width="29" height="29" rx="10" fill="#DF1486"/>
<g clip-path="url(#clip0_8_70)">
<path d="M97.6021 7.49988C97.6021 7.2881 97.6909 7.07636 97.8681 6.9149L103.449 1.8342C103.803 1.511 104.379 1.511 104.734 1.8342C105.089 2.15727 105.089 2.68117 104.734 3.0044L99.796 7.49988L104.734 11.9954C105.089 12.3186 105.089 12.8424 104.734 13.1655C104.379 13.4888 103.803 13.4888 103.448 13.1655L97.8679 8.08484C97.6907 7.9233 97.6021 7.71157 97.6021 7.49987V7.49988Z" fill="#222B45"/>
</g>
<path d="M121.93 13V11.83L125.62 8.11C126.775 6.91 127.36 6.235 127.36 5.32C127.36 4.27 126.505 3.595 125.38 3.61C124.21 3.595 123.46 4.345 123.46 5.47H121.93C121.93 3.535 123.4 2.245 125.44 2.26C127.465 2.245 128.89 3.535 128.89 5.26C128.89 6.445 128.32 7.39 126.34 9.34L124.18 11.53V11.62H129.07V13H121.93ZM134.526 13.15C132.081 13.15 130.641 11.17 130.626 7.69C130.641 4.255 132.096 2.245 134.526 2.26C136.971 2.245 138.426 4.255 138.426 7.69C138.426 11.17 136.986 13.15 134.526 13.15ZM132.246 7.69C132.246 10.345 133.101 11.755 134.526 11.77C135.966 11.755 136.821 10.345 136.806 7.69C136.821 5.065 135.951 3.61 134.526 3.61C133.116 3.61 132.246 5.065 132.246 7.69ZM140.079 13V11.83L143.769 8.11C144.924 6.91 145.509 6.235 145.509 5.32C145.509 4.27 144.654 3.595 143.529 3.61C142.359 3.595 141.609 4.345 141.609 5.47H140.079C140.079 3.535 141.549 2.245 143.589 2.26C145.614 2.245 147.039 3.535 147.039 5.26C147.039 6.445 146.469 7.39 144.489 9.34L142.329 11.53V11.62H147.219V13H140.079ZM148.556 10.93V9.64L153.236 2.38H155.216V9.58H156.656V10.93H155.216V13H153.686V10.93H148.556ZM150.236 9.58H153.686V4.3H153.596L150.236 9.49V9.58ZM168.773 1.12V10.84H167.393V6.37H163.763V5.26H167.393V3.88H163.763V2.77H167.393V1.12H168.773ZM158.603 8.95V2.05H159.983V7.78C161.723 7.78 163.388 7.675 165.263 7.33L165.413 8.47C163.328 8.86 161.543 8.95 159.593 8.95H158.603ZM160.223 13.96V9.97H161.633V12.85H169.103V13.96H160.223ZM178.739 13.15C176.789 13.135 174.734 11.965 174.749 8.05C174.734 4.36 176.339 2.245 178.889 2.26C180.824 2.245 182.189 3.46 182.429 5.14H180.839C180.629 4.285 179.954 3.655 178.889 3.67C177.239 3.655 176.279 5.08 176.279 7.48H176.399C176.969 6.58 177.974 6.055 179.129 6.04C181.019 6.055 182.534 7.495 182.549 9.52C182.534 11.59 181.019 13.165 178.739 13.15ZM176.489 9.58C176.489 10.75 177.419 11.8 178.739 11.8C180.014 11.8 180.974 10.795 180.989 9.55C180.974 8.335 180.044 7.36 178.769 7.36C177.479 7.36 176.489 8.395 176.489 9.58ZM194.729 1.12V8.83H193.319V8.2H190.769V7.33H193.319V1.12H194.729ZM183.779 5.98C186.329 5.98 189.539 5.95 192.359 5.65L192.449 6.55C191.204 6.715 189.929 6.82 188.669 6.88V8.86H187.289V6.94C186.104 6.97 184.964 6.97 183.929 6.97L183.779 5.98ZM184.769 3.34C184.754 2.125 186.059 1.36 188.039 1.36C190.004 1.36 191.309 2.125 191.309 3.34C191.309 4.555 190.004 5.29 188.039 5.29C186.059 5.29 184.754 4.555 184.769 3.34ZM185.759 10.24V9.28H194.729V12.1H187.169V13.12H195.119V14.11H185.789V11.17H193.349V10.24H185.759ZM186.059 3.34C186.059 3.955 186.839 4.36 188.039 4.36C189.239 4.36 190.019 3.955 190.019 3.34C190.019 2.71 189.239 2.29 188.039 2.29C186.839 2.29 186.059 2.71 186.059 3.34Z" fill="#222B45"/>
<g clip-path="url(#clip1_8_70)">
<path d="M220.398 7.50012C220.398 7.7119 220.309 7.92364 220.132 8.0851L214.551 13.1658C214.197 13.489 213.621 13.489 213.266 13.1658C212.911 12.8427 212.911 12.3188 213.266 11.9956L218.204 7.50012L213.266 3.00462C212.911 2.68142 212.911 2.15757 213.266 1.83453C213.621 1.51117 214.197 1.51117 214.552 1.83453L220.132 6.91516C220.309 7.0767 220.398 7.28843 220.398 7.50013V7.50012Z" fill="#222B45"/>
</g>
<path d="M22.1799 37.883C23.7592 37.883 24.9197 38.8522 24.9317 40.2281C24.9197 41.604 23.7592 42.5612 22.1799 42.5492C20.5886 42.5612 19.428 41.604 19.428 40.2281C19.428 38.8522 20.5886 37.883 22.1799 37.883ZM20.5048 40.2281C20.5048 41.0895 21.2227 41.6519 22.1799 41.6638C23.137 41.6519 23.8549 41.0895 23.8549 40.2281C23.8549 39.3786 23.137 38.8043 22.1799 38.8163C21.2227 38.8043 20.5048 39.3786 20.5048 40.2281ZM21.0073 44.2242V43.3389H27.8989V45.9711H22.132V46.9761H28.2339V47.8614H21.0552V45.1335H26.7982V44.2242H21.0073ZM26.7982 42.8603V37.5241H27.8989V42.8603H26.7982Z" fill="#8F9BB3"/>
<path d="M72.9228 37.5241V43.6739H71.7982V43.1714H69.7642V42.4774H71.7982V37.5241H72.9228ZM64.1887 41.4006C66.2227 41.4006 68.7831 41.3767 71.0324 41.1374L71.1042 41.8553C70.1112 41.9869 69.0942 42.0706 68.0892 42.1185V43.6978H66.9884V42.1663C66.0432 42.1903 65.1339 42.1903 64.3084 42.1903L64.1887 41.4006ZM64.9784 39.2948C64.9664 38.3257 66.0073 37.7155 67.5866 37.7155C69.154 37.7155 70.1949 38.3257 70.1949 39.2948C70.1949 40.264 69.154 40.8502 67.5866 40.8502C66.0073 40.8502 64.9664 40.264 64.9784 39.2948ZM65.768 44.7985V44.0328H72.9228V46.2821H66.8927V47.0957H73.2339V47.8854H65.792V45.5403H71.8221V44.7985H65.768ZM66.0073 39.2948C66.0073 39.7854 66.6295 40.1084 67.5866 40.1084C68.5438 40.1084 69.166 39.7854 69.166 39.2948C69.166 38.7923 68.5438 38.4573 67.5866 38.4573C66.6295 38.4573 66.0073 38.7923 66.0073 39.2948Z" fill="#8F9BB3"/>
<path d="M117.42 37.5241V41.9031H119V42.8363H117.42V47.9811H116.32V37.5241H117.42ZM109.093 45.1575C109.919 45.1575 110.876 45.1455 111.869 45.1216V44.0448C110.684 43.8773 109.919 43.1594 109.931 42.1424C109.919 40.9699 110.936 40.1922 112.443 40.2041C113.915 40.1922 114.944 40.9699 114.956 42.1424C114.944 43.1714 114.154 43.8892 112.97 44.0448V45.0737C113.891 45.0259 114.824 44.9421 115.697 44.8225L115.793 45.66C113.52 46.0428 111.067 46.0668 109.261 46.0668L109.093 45.1575ZM109.284 39.6538V38.7684H111.869V37.548H112.97V38.7684H115.554V39.6538H109.284ZM110.959 42.1424C110.971 42.8124 111.558 43.2312 112.443 43.2192C113.305 43.2312 113.891 42.8124 113.879 42.1424C113.891 41.4844 113.305 41.0536 112.443 41.0417C111.558 41.0536 110.971 41.4844 110.959 42.1424Z" fill="#8F9BB3"/>
<path d="M159.573 38.4334C159.573 39.8332 161.272 41.1374 163.33 41.4245L162.899 42.3338C161.176 42.0587 159.68 41.1613 158.998 39.917C158.316 41.1613 156.821 42.0587 155.122 42.3338L154.667 41.4245C156.725 41.1374 158.412 39.8572 158.424 38.4334V37.883H159.573V38.4334ZM154.213 44.2721V43.3389H163.76V44.2721H159.501V47.9811H158.424V44.2721H154.213Z" fill="#8F9BB3"/>
<path d="M207.54 37.9548V41.5442H204.549V42.7646H208.76V43.6739H199.213V42.7646H203.424V41.5442H200.433V37.9548H207.54ZM200.266 45.5403V44.655H207.588V47.9811H206.463V45.5403H200.266ZM201.51 40.6588H206.439V38.8402H201.51V40.6588Z" fill="#8F9BB3"/>
<path d="M252.588 38.0505V38.8402C252.588 39.6657 252.588 40.599 252.325 41.8792H253.808V42.7885H244.213V41.8792H251.188C251.475 40.6588 251.487 39.7615 251.487 38.9598H245.409V38.0505H252.588ZM245.385 47.8614V44.1046H252.588V47.8614H245.385ZM246.462 46.9521H251.487V44.99H246.462V46.9521Z" fill="#8F9BB3"/>
<path d="M297.707 42.8842V43.7696H294.549V45.8275H298.808V46.7368H289.213V45.8275H293.424V43.7696H290.409V38.3377H297.612V39.247H291.534V40.587H297.372V41.4724H291.534V42.8842H297.707Z" fill="#8F9BB3"/>
<path d="M16.4501 80V78.9232L19.8462 75.4995C20.9092 74.3951 21.4476 73.7738 21.4476 72.9317C21.4476 71.9654 20.6607 71.3441 19.6253 71.3579C18.5485 71.3441 17.8582 72.0344 17.8582 73.0698H16.4501C16.4501 71.2889 17.803 70.1017 19.6805 70.1155C21.5442 70.1017 22.8557 71.2889 22.8557 72.8765C22.8557 73.9671 22.3311 74.8368 20.5088 76.6315L18.5209 78.6471V78.7299H23.0214V80H16.4501ZM28.1811 80.1381C26.3864 80.1242 24.4951 79.0474 24.5089 75.4443C24.4951 72.0482 25.9723 70.1017 28.3191 70.1155C30.1 70.1017 31.3563 71.2199 31.5772 72.7661H30.1138C29.9206 71.9792 29.2993 71.3993 28.3191 71.4132C26.8006 71.3993 25.917 72.7108 25.917 74.9197H26.0275C26.5521 74.0914 27.477 73.6082 28.54 73.5944C30.2795 73.6082 31.6738 74.9335 31.6876 76.7972C31.6738 78.7023 30.2795 80.1519 28.1811 80.1381ZM26.1103 76.8524C26.1103 77.9292 26.9662 78.8956 28.1811 78.8956C29.3545 78.8956 30.2381 77.9706 30.2519 76.8248C30.2381 75.7066 29.3821 74.8092 28.2087 74.8092C27.0215 74.8092 26.1103 75.7618 26.1103 76.8524Z" fill="#8F9BB3"/>
<path d="M61.895 80V78.9232L65.2911 75.4995C66.3541 74.3951 66.8925 73.7738 66.8925 72.9317C66.8925 71.9654 66.1056 71.3441 65.0702 71.3579C63.9934 71.3441 63.3031 72.0344 63.3031 73.0698H61.895C61.895 71.2889 63.2479 70.1017 65.1254 70.1155C66.9891 70.1017 68.3006 71.2889 68.3006 72.8765C68.3006 73.9671 67.776 74.8368 65.9537 76.6315L63.9658 78.6471V78.7299H68.4663V80H61.895ZM70.4232 80L74.7856 71.5788V71.5236H69.7605V70.2259H76.3318V71.5512L71.9694 80H70.4232Z" fill="#8F9BB3"/>
<path d="M106.491 80V78.9232L109.887 75.4995C110.95 74.3951 111.488 73.7738 111.488 72.9317C111.488 71.9654 110.701 71.3441 109.666 71.3579C108.589 71.3441 107.899 72.0344 107.899 73.0698H106.491C106.491 71.2889 107.843 70.1017 109.721 70.1155C111.585 70.1017 112.896 71.2889 112.896 72.8765C112.896 73.9671 112.372 74.8368 110.549 76.6315L108.561 78.6471V78.7299H113.062V80H106.491ZM118.111 80.1381C115.985 80.1381 114.508 78.9922 114.522 77.4046C114.508 76.1483 115.405 75.1268 116.537 74.9473V74.8921C115.557 74.6574 114.881 73.7738 114.881 72.7108C114.881 71.2061 116.247 70.1017 118.111 70.1155C119.947 70.1017 121.3 71.2061 121.314 72.7108C121.3 73.7738 120.624 74.6574 119.657 74.8921V74.9473C120.776 75.1268 121.687 76.1483 121.7 77.4046C121.687 78.9922 120.196 80.1381 118.111 80.1381ZM116.013 77.2942C116.013 78.2467 116.813 78.9094 118.111 78.8956C119.367 78.9094 120.182 78.2467 120.182 77.2942C120.182 76.2864 119.298 75.5547 118.111 75.5547C116.896 75.5547 116.013 76.2864 116.013 77.2942ZM116.344 72.8213C116.33 73.76 117.062 74.3813 118.111 74.3951C119.119 74.3813 119.864 73.76 119.851 72.8213C119.864 71.9378 119.146 71.3165 118.111 71.3027C117.034 71.3165 116.33 71.9239 116.344 72.8213Z" fill="#8F9BB3"/>
<path d="M151.45 80V78.9232L154.846 75.4995C155.909 74.3951 156.448 73.7738 156.448 72.9317C156.448 71.9654 155.661 71.3441 154.625 71.3579C153.549 71.3441 152.858 72.0344 152.858 73.0698H151.45C151.45 71.2889 152.803 70.1017 154.681 70.1155C156.544 70.1017 157.856 71.2889 157.856 72.8765C157.856 73.9671 157.331 74.8368 155.509 76.6315L153.521 78.6471V78.7299H158.021V80H151.45ZM163.015 70.1155C164.81 70.1155 166.688 71.1923 166.688 74.7816C166.688 78.1915 165.224 80.1381 162.877 80.1381C161.083 80.1381 159.826 79.0198 159.592 77.4322H161.055C161.262 78.2605 161.883 78.8404 162.877 78.8404C164.382 78.8404 165.266 77.5289 165.279 75.2786H165.141C164.631 76.1207 163.706 76.6177 162.656 76.6039C160.903 76.6177 159.509 75.2786 159.509 73.4011C159.509 71.5512 160.889 70.0879 163.015 70.1155ZM160.945 73.3735C160.958 74.5193 161.801 75.4029 162.988 75.4167C164.161 75.4029 165.072 74.4503 165.086 73.3735C165.072 72.3105 164.203 71.3441 163.015 71.3579C161.828 71.3441 160.945 72.2691 160.945 73.3735Z" fill="#8F9BB3"/>
<path d="M199.774 80.1381C197.745 80.1381 196.309 79.0474 196.24 77.4598H197.758C197.814 78.302 198.656 78.8542 199.746 78.868C200.934 78.8542 201.79 78.2053 201.79 77.2666C201.79 76.3002 200.989 75.6099 199.581 75.6099H198.752V74.3951H199.581C200.699 74.3951 201.486 73.7738 201.486 72.8489C201.486 71.9516 200.809 71.3441 199.774 71.3579C198.794 71.3441 197.924 71.8963 197.896 72.7661H196.461C196.502 71.1785 197.966 70.1017 199.802 70.1155C201.707 70.1017 202.922 71.3165 202.922 72.7661C202.922 73.8705 202.231 74.6712 201.182 74.9197V75.0025C202.507 75.182 203.294 76.0793 203.281 77.3218C203.294 78.9508 201.79 80.1381 199.774 80.1381ZM208.306 80.1381C206.056 80.1381 204.73 78.3158 204.717 75.113C204.73 71.9516 206.069 70.1017 208.306 70.1155C210.556 70.1017 211.895 71.9516 211.895 75.113C211.895 78.3158 210.57 80.1381 208.306 80.1381ZM206.208 75.113C206.208 77.5565 206.994 78.8542 208.306 78.868C209.631 78.8542 210.418 77.5565 210.404 75.113C210.418 72.697 209.617 71.3579 208.306 71.3579C207.008 71.3579 206.208 72.697 206.208 75.113Z" fill="#8F9BB3"/>
<path d="M245.933 80.1381C243.904 80.1381 242.468 79.0474 242.399 77.4598H243.918C243.973 78.302 244.815 78.8542 245.906 78.868C247.093 78.8542 247.949 78.2053 247.949 77.2666C247.949 76.3002 247.148 75.6099 245.74 75.6099H244.912V74.3951H245.74C246.858 74.3951 247.645 73.7738 247.645 72.8489C247.645 71.9516 246.969 71.3441 245.933 71.3579C244.953 71.3441 244.084 71.8963 244.056 72.7661H242.62C242.662 71.1785 244.125 70.1017 245.961 70.1155C247.866 70.1017 249.081 71.3165 249.081 72.7661C249.081 73.8705 248.391 74.6712 247.342 74.9197V75.0025C248.667 75.182 249.454 76.0793 249.44 77.3218C249.454 78.9508 247.949 80.1381 245.933 80.1381ZM254.769 70.2259V80H253.278V71.7169H253.223L250.904 73.2354V71.8273L253.333 70.2259H254.769Z" fill="#8F9BB3"/>
<path d="M295.462 70.2259V80H293.971V71.7169H293.915L291.596 73.2354V71.8273L294.026 70.2259H295.462Z" fill="#222B45"/>
<path d="M20.7575 130V128.923L24.1536 125.499C25.2166 124.395 25.755 123.774 25.755 122.932C25.755 121.965 24.9681 121.344 23.9327 121.358C22.8559 121.344 22.1656 122.034 22.1656 123.07H20.7575C20.7575 121.289 22.1104 120.102 23.9879 120.115C25.8516 120.102 27.1631 121.289 27.1631 122.877C27.1631 123.967 26.6385 124.837 24.8162 126.632L22.8283 128.647V128.73H27.3288V130H20.7575Z" fill="#222B45"/>
<path d="M69.0274 130.138C66.9981 130.138 65.5623 129.047 65.4933 127.46H67.0119C67.0671 128.302 67.9092 128.854 68.9998 128.868C70.1871 128.854 71.043 128.205 71.043 127.267C71.043 126.3 70.2423 125.61 68.8342 125.61H68.0059V124.395H68.8342C69.9524 124.395 70.7393 123.774 70.7393 122.849C70.7393 121.952 70.0628 121.344 69.0274 121.358C68.0473 121.344 67.1775 121.896 67.1499 122.766H65.7142C65.7556 121.178 67.219 120.102 69.0551 120.115C70.9602 120.102 72.175 121.317 72.175 122.766C72.175 123.87 71.4848 124.671 70.4356 124.92V125.003C71.7609 125.182 72.5478 126.079 72.534 127.322C72.5478 128.951 71.043 130.138 69.0274 130.138Z" fill="#222B45"/>
<path d="M110.288 128.095V126.908L114.595 120.226H116.417V126.852H117.743V128.095H116.417V130H115.009V128.095H110.288ZM111.834 126.852H115.009V121.993H114.926L111.834 126.77V126.852Z" fill="white"/>
<path d="M159.011 130.138C157.147 130.138 155.753 129.006 155.697 127.46H157.133C157.216 128.288 158.003 128.896 159.011 128.896C160.184 128.896 161.026 128.04 161.026 126.88C161.026 125.679 160.157 124.823 158.928 124.809C158.141 124.809 157.547 125.072 157.216 125.665H155.808L156.443 120.226H161.965V121.524H157.685L157.354 124.229H157.437C157.851 123.857 158.528 123.581 159.287 123.594C161.109 123.581 162.476 124.947 162.462 126.825C162.476 128.758 161.026 130.138 159.011 130.138Z" fill="#222B45"/>
<path d="M204.083 130.138C202.288 130.124 200.397 129.047 200.41 125.444C200.397 122.048 201.874 120.102 204.221 120.115C206.002 120.102 207.258 121.22 207.479 122.766H206.015C205.822 121.979 205.201 121.399 204.221 121.413C202.702 121.399 201.819 122.711 201.819 124.92H201.929C202.454 124.091 203.379 123.608 204.442 123.594C206.181 123.608 207.575 124.933 207.589 126.797C207.575 128.702 206.181 130.152 204.083 130.138ZM202.012 126.852C202.012 127.929 202.868 128.896 204.083 128.896C205.256 128.896 206.14 127.971 206.153 126.825C206.14 125.707 205.284 124.809 204.11 124.809C202.923 124.809 202.012 125.762 202.012 126.852Z" fill="#222B45"/>
<path d="M246.325 130L250.687 121.579V121.524H245.662V120.226H252.233V121.551L247.871 130H246.325Z" fill="#222B45"/>
<path d="M294.013 130.138C291.887 130.138 290.41 128.992 290.423 127.405C290.41 126.148 291.307 125.127 292.439 124.947V124.892C291.459 124.657 290.782 123.774 290.782 122.711C290.782 121.206 292.149 120.102 294.013 120.115C295.849 120.102 297.202 121.206 297.215 122.711C297.202 123.774 296.525 124.657 295.559 124.892V124.947C296.677 125.127 297.588 126.148 297.602 127.405C297.588 128.992 296.097 130.138 294.013 130.138ZM291.914 127.294C291.914 128.247 292.715 128.909 294.013 128.896C295.269 128.909 296.083 128.247 296.083 127.294C296.083 126.286 295.2 125.555 294.013 125.555C292.798 125.555 291.914 126.286 291.914 127.294ZM292.246 122.821C292.232 123.76 292.963 124.381 294.013 124.395C295.02 124.381 295.766 123.76 295.752 122.821C295.766 121.938 295.048 121.317 294.013 121.303C292.936 121.317 292.232 121.924 292.246 122.821Z" fill="#222B45"/>
<path d="M23.917 170.115C25.7117 170.115 27.5892 171.192 27.5892 174.782C27.5892 178.192 26.1258 180.138 23.779 180.138C21.9843 180.138 20.728 179.02 20.4933 177.432H21.9567C22.1637 178.261 22.785 178.84 23.779 178.84C25.2837 178.84 26.1673 177.529 26.1811 175.279H26.043C25.5322 176.121 24.6073 176.618 23.5581 176.604C21.8048 176.618 20.4105 175.279 20.4105 173.401C20.4105 171.551 21.791 170.088 23.917 170.115ZM21.8462 173.373C21.86 174.519 22.7021 175.403 23.8894 175.417C25.0628 175.403 25.974 174.45 25.9878 173.373C25.974 172.31 25.1043 171.344 23.917 171.358C22.7298 171.344 21.8462 172.269 21.8462 173.373Z" fill="#222B45"/>
<path d="M66.2082 170.226V180H64.7173V171.717H64.662L62.3428 173.235V171.827L64.7725 170.226H66.2082ZM72.0926 180.138C69.8423 180.138 68.517 178.316 68.5032 175.113C68.517 171.952 69.8561 170.102 72.0926 170.115C74.3428 170.102 75.6819 171.952 75.6819 175.113C75.6819 178.316 74.3566 180.138 72.0926 180.138ZM69.9942 175.113C69.9942 177.556 70.7811 178.854 72.0926 178.868C73.4179 178.854 74.2048 177.556 74.191 175.113C74.2048 172.697 73.4041 171.358 72.0926 171.358C70.7949 171.358 69.9942 172.697 69.9942 175.113Z" fill="#222B45"/>
<path d="M112.368 170.226V180H110.877V171.717H110.821L108.502 173.235V171.827L110.932 170.226H112.368ZM118.556 170.226V180H117.065V171.717H117.01L114.69 173.235V171.827L117.12 170.226H118.556Z" fill="#222B45"/>
<path d="M156.363 170.226V180H154.872V171.717H154.817L152.498 173.235V171.827L154.928 170.226H156.363ZM158.852 180V178.923L162.248 175.499C163.311 174.395 163.849 173.774 163.849 172.932C163.849 171.965 163.062 171.344 162.027 171.358C160.95 171.344 160.26 172.034 160.26 173.07H158.852C158.852 171.289 160.204 170.102 162.082 170.115C163.946 170.102 165.257 171.289 165.257 172.877C165.257 173.967 164.733 174.837 162.91 176.632L160.922 178.647V178.73H165.423V180H158.852Z" fill="#222B45"/>
<path d="M201.154 170.226V180H199.663V171.717H199.608L197.289 173.235V171.827L199.719 170.226H201.154ZM207.121 180.138C205.092 180.138 203.656 179.047 203.587 177.46H205.106C205.161 178.302 206.003 178.854 207.094 178.868C208.281 178.854 209.137 178.205 209.137 177.267C209.137 176.3 208.336 175.61 206.928 175.61H206.1V174.395H206.928C208.046 174.395 208.833 173.774 208.833 172.849C208.833 171.952 208.157 171.344 207.121 171.358C206.141 171.344 205.272 171.896 205.244 172.766H203.808C203.85 171.178 205.313 170.102 207.149 170.115C209.054 170.102 210.269 171.317 210.269 172.766C210.269 173.87 209.579 174.671 208.53 174.92V175.003C209.855 175.182 210.642 176.079 210.628 177.322C210.642 178.951 209.137 180.138 207.121 180.138Z" fill="#222B45"/>
<path d="M246.087 170.226V180H244.596V171.717H244.541L242.221 173.235V171.827L244.651 170.226H246.087ZM248.382 178.095V176.908L252.689 170.226H254.511V176.852H255.837V178.095H254.511V180H253.103V178.095H248.382ZM249.928 176.852H253.103V171.993H253.02L249.928 176.77V176.852Z" fill="#222B45"/>
<path d="M291.276 170.226V180H289.785V171.717H289.729L287.41 173.235V171.827L289.84 170.226H291.276ZM297.105 180.138C295.241 180.138 293.847 179.006 293.792 177.46H295.227C295.31 178.288 296.097 178.896 297.105 178.896C298.278 178.896 299.12 178.04 299.12 176.88C299.12 175.679 298.251 174.823 297.022 174.809C296.235 174.809 295.641 175.072 295.31 175.665H293.902L294.537 170.226H300.059V171.524H295.779L295.448 174.229H295.531C295.945 173.857 296.622 173.581 297.381 173.594C299.203 173.581 300.57 174.947 300.556 176.825C300.57 178.758 299.12 180.138 297.105 180.138Z" fill="#222B45"/>
<path d="M21.1543 220.226V230H19.6633V221.717H19.6081L17.2888 223.235V221.827L19.7185 220.226H21.1543ZM27.1767 230.138C25.382 230.124 23.4907 229.047 23.5045 225.444C23.4907 222.048 24.9679 220.102 27.3148 220.115C29.0956 220.102 30.3519 221.22 30.5728 222.766H29.1094C28.9162 221.979 28.2949 221.399 27.3148 221.413C25.7962 221.399 24.9127 222.711 24.9127 224.92H25.0231C25.5477 224.091 26.4726 223.608 27.5356 223.594C29.2751 223.608 30.6694 224.933 30.6832 226.797C30.6694 228.702 29.2751 230.152 27.1767 230.138ZM25.1059 226.852C25.1059 227.929 25.9619 228.896 27.1767 228.896C28.3502 228.896 29.2337 227.971 29.2475 226.825C29.2337 225.707 28.3778 224.809 27.2043 224.809C26.0171 224.809 25.1059 225.762 25.1059 226.852Z" fill="#222B45"/>
<path d="M66.5992 220.226V230H65.1082V221.717H65.053L62.7337 223.235V221.827L65.1634 220.226H66.5992ZM69.4188 230L73.7812 221.579V221.524H68.7561V220.226H75.3274V221.551L70.965 230H69.4188Z" fill="#222B45"/>
<path d="M111.195 220.226V230H109.704V221.717H109.649L107.329 223.235V221.827L109.759 220.226H111.195ZM117.107 230.138C114.981 230.138 113.504 228.992 113.517 227.405C113.504 226.148 114.401 225.127 115.533 224.947V224.892C114.553 224.657 113.876 223.774 113.876 222.711C113.876 221.206 115.243 220.102 117.107 220.115C118.943 220.102 120.296 221.206 120.31 222.711C120.296 223.774 119.619 224.657 118.653 224.892V224.947C119.771 225.127 120.682 226.148 120.696 227.405C120.682 228.992 119.191 230.138 117.107 230.138ZM115.008 227.294C115.008 228.247 115.809 228.909 117.107 228.896C118.363 228.909 119.177 228.247 119.177 227.294C119.177 226.286 118.294 225.555 117.107 225.555C115.892 225.555 115.008 226.286 115.008 227.294ZM115.34 222.821C115.326 223.76 116.058 224.381 117.107 224.395C118.114 224.381 118.86 223.76 118.846 222.821C118.86 221.938 118.142 221.317 117.107 221.303C116.03 221.317 115.326 221.924 115.34 222.821Z" fill="#222B45"/>
<path d="M156.154 220.226V230H154.663V221.717H154.608L152.289 223.235V221.827L154.719 220.226H156.154ZM162.011 220.115C163.806 220.115 165.683 221.192 165.683 224.782C165.683 228.192 164.22 230.138 161.873 230.138C160.078 230.138 158.822 229.02 158.587 227.432H160.051C160.258 228.261 160.879 228.84 161.873 228.84C163.378 228.84 164.261 227.529 164.275 225.279H164.137C163.626 226.121 162.701 226.618 161.652 226.604C159.899 226.618 158.505 225.279 158.505 223.401C158.505 221.551 159.885 220.088 162.011 220.115ZM159.94 223.373C159.954 224.519 160.796 225.403 161.983 225.417C163.157 225.403 164.068 224.45 164.082 223.373C164.068 222.31 163.198 221.344 162.011 221.358C160.824 221.344 159.94 222.269 159.94 223.373Z" fill="#222B45"/>
<path d="M196.504 230V228.923L199.9 225.499C200.963 224.395 201.502 223.774 201.502 222.932C201.502 221.965 200.715 221.344 199.679 221.358C198.602 221.344 197.912 222.034 197.912 223.07H196.504C196.504 221.289 197.857 220.102 199.734 220.115C201.598 220.102 202.91 221.289 202.91 222.877C202.91 223.967 202.385 224.837 200.563 226.632L198.575 228.647V228.73H203.075V230H196.504ZM208.097 230.138C205.847 230.138 204.521 228.316 204.508 225.113C204.521 221.952 205.861 220.102 208.097 220.115C210.347 220.102 211.686 221.952 211.686 225.113C211.686 228.316 210.361 230.138 208.097 230.138ZM205.999 225.113C205.999 227.556 206.785 228.854 208.097 228.868C209.422 228.854 210.209 227.556 210.195 225.113C210.209 222.697 209.408 221.358 208.097 221.358C206.799 221.358 205.999 222.697 205.999 225.113Z" fill="#222B45"/>
<path d="M242.663 230V228.923L246.06 225.499C247.123 224.395 247.661 223.774 247.661 222.932C247.661 221.965 246.874 221.344 245.839 221.358C244.762 221.344 244.072 222.034 244.072 223.07H242.663C242.663 221.289 244.016 220.102 245.894 220.115C247.758 220.102 249.069 221.289 249.069 222.877C249.069 223.967 248.544 224.837 246.722 226.632L244.734 228.647V228.73H249.235V230H242.663ZM254.56 220.226V230H253.069V221.717H253.014L250.695 223.235V221.827L253.124 220.226H254.56Z" fill="#222B45"/>
<path d="M286.659 230V228.923L290.055 225.499C291.118 224.395 291.657 223.774 291.657 222.932C291.657 221.965 290.87 221.344 289.834 221.358C288.757 221.344 288.067 222.034 288.067 223.07H286.659C286.659 221.289 288.012 220.102 289.889 220.115C291.753 220.102 293.065 221.289 293.065 222.877C293.065 223.967 292.54 224.837 290.718 226.632L288.73 228.647V228.73H293.23V230H286.659ZM294.856 230V228.923L298.252 225.499C299.315 224.395 299.853 223.774 299.853 222.932C299.853 221.965 299.067 221.344 298.031 221.358C296.954 221.344 296.264 222.034 296.264 223.07H294.856C294.856 221.289 296.209 220.102 298.086 220.115C299.95 220.102 301.262 221.289 301.262 222.877C301.262 223.967 300.737 224.837 298.915 226.632L296.927 228.647V228.73H301.427V230H294.856Z" fill="#222B45"/>
<path d="M16.4501 280V278.923L19.8462 275.499C20.9092 274.395 21.4476 273.774 21.4476 272.932C21.4476 271.965 20.6607 271.344 19.6253 271.358C18.5485 271.344 17.8582 272.034 17.8582 273.07H16.4501C16.4501 271.289 17.803 270.102 19.6805 270.115C21.5442 270.102 22.8557 271.289 22.8557 272.877C22.8557 273.967 22.3311 274.837 20.5088 276.632L18.5209 278.647V278.73H23.0214V280H16.4501ZM28.1259 280.138C26.0965 280.138 24.6608 279.047 24.5917 277.46H26.1103C26.1655 278.302 27.0077 278.854 28.0983 278.868C29.2855 278.854 30.1414 278.205 30.1414 277.267C30.1414 276.3 29.3407 275.61 27.9326 275.61H27.1043V274.395H27.9326C29.0508 274.395 29.8377 273.774 29.8377 272.849C29.8377 271.952 29.1613 271.344 28.1259 271.358C27.1457 271.344 26.276 271.896 26.2484 272.766H24.8126C24.854 271.178 26.3174 270.102 28.1535 270.115C30.0586 270.102 31.2735 271.317 31.2735 272.766C31.2735 273.87 30.5832 274.671 29.534 274.92V275.003C30.8593 275.182 31.6462 276.079 31.6324 277.322C31.6462 278.951 30.1414 280.138 28.1259 280.138Z" fill="#222B45"/>
<path d="M61.4838 280V278.923L64.8799 275.499C65.9429 274.395 66.4813 273.774 66.4813 272.932C66.4813 271.965 65.6944 271.344 64.659 271.358C63.5822 271.344 62.8919 272.034 62.8919 273.07H61.4838C61.4838 271.289 62.8367 270.102 64.7142 270.115C66.5779 270.102 67.8894 271.289 67.8894 272.877C67.8894 273.967 67.3648 274.837 65.5425 276.632L63.5546 278.647V278.73H68.0551V280H61.4838ZM69.2852 278.095V276.908L73.5924 270.226H75.4147V276.852H76.74V278.095H75.4147V280H74.0065V278.095H69.2852ZM70.8313 276.852H74.0065V271.993H73.9237L70.8313 276.77V276.852Z" fill="#222B45"/>
<path d="M106.571 280V278.923L109.968 275.499C111.031 274.395 111.569 273.774 111.569 272.932C111.569 271.965 110.782 271.344 109.747 271.358C108.67 271.344 107.98 272.034 107.98 273.07H106.571C106.571 271.289 107.924 270.102 109.802 270.115C111.666 270.102 112.977 271.289 112.977 272.877C112.977 273.967 112.452 274.837 110.63 276.632L108.642 278.647V278.73H113.143V280H106.571ZM118.109 280.138C116.245 280.138 114.851 279.006 114.796 277.46H116.232C116.314 278.288 117.101 278.896 118.109 278.896C119.283 278.896 120.125 278.04 120.125 276.88C120.125 275.679 119.255 274.823 118.026 274.809C117.239 274.809 116.646 275.072 116.314 275.665H114.906L115.541 270.226H121.063V271.524H116.784L116.453 274.229H116.535C116.95 273.857 117.626 273.581 118.385 273.594C120.208 273.581 121.574 274.947 121.56 276.825C121.574 278.758 120.125 280.138 118.109 280.138Z" fill="#222B45"/>
<path d="M151.45 280V278.923L154.846 275.499C155.909 274.395 156.448 273.774 156.448 272.932C156.448 271.965 155.661 271.344 154.625 271.358C153.549 271.344 152.858 272.034 152.858 273.07H151.45C151.45 271.289 152.803 270.102 154.681 270.115C156.544 270.102 157.856 271.289 157.856 272.877C157.856 273.967 157.331 274.837 155.509 276.632L153.521 278.647V278.73H158.021V280H151.45ZM163.181 280.138C161.386 280.124 159.495 279.047 159.509 275.444C159.495 272.048 160.972 270.102 163.319 270.115C165.1 270.102 166.356 271.22 166.577 272.766H165.114C164.921 271.979 164.299 271.399 163.319 271.413C161.801 271.399 160.917 272.711 160.917 274.92H161.027C161.552 274.091 162.477 273.608 163.54 273.594C165.279 273.608 166.674 274.933 166.688 276.797C166.674 278.702 165.279 280.152 163.181 280.138ZM161.11 276.852C161.11 277.929 161.966 278.896 163.181 278.896C164.355 278.896 165.238 277.971 165.252 276.825C165.238 275.707 164.382 274.809 163.209 274.809C162.021 274.809 161.11 275.762 161.11 276.852Z" fill="#222B45"/>
<path d="M196.895 280V278.923L200.291 275.499C201.354 274.395 201.892 273.774 201.892 272.932C201.892 271.965 201.106 271.344 200.07 271.358C198.993 271.344 198.303 272.034 198.303 273.07H196.895C196.895 271.289 198.248 270.102 200.125 270.115C201.989 270.102 203.301 271.289 203.301 272.877C203.301 273.967 202.776 274.837 200.954 276.632L198.966 278.647V278.73H203.466V280H196.895ZM205.423 280L209.786 271.579V271.524H204.761V270.226H211.332V271.551L206.969 280H205.423Z" fill="#222B45"/>
<path d="M241.491 280V278.923L244.887 275.499C245.95 274.395 246.488 273.774 246.488 272.932C246.488 271.965 245.701 271.344 244.666 271.358C243.589 271.344 242.899 272.034 242.899 273.07H241.491C241.491 271.289 242.843 270.102 244.721 270.115C246.585 270.102 247.896 271.289 247.896 272.877C247.896 273.967 247.372 274.837 245.549 276.632L243.561 278.647V278.73H248.062V280H241.491ZM253.111 280.138C250.985 280.138 249.508 278.992 249.522 277.405C249.508 276.148 250.405 275.127 251.537 274.947V274.892C250.557 274.657 249.881 273.774 249.881 272.711C249.881 271.206 251.247 270.102 253.111 270.115C254.947 270.102 256.3 271.206 256.314 272.711C256.3 273.774 255.624 274.657 254.657 274.892V274.947C255.776 275.127 256.687 276.148 256.7 277.405C256.687 278.992 255.196 280.138 253.111 280.138ZM251.013 277.294C251.013 278.247 251.813 278.909 253.111 278.896C254.367 278.909 255.182 278.247 255.182 277.294C255.182 276.286 254.298 275.555 253.111 275.555C251.896 275.555 251.013 276.286 251.013 277.294ZM251.344 272.821C251.33 273.76 252.062 274.381 253.111 274.395C254.119 274.381 254.864 273.76 254.851 272.821C254.864 271.938 254.146 271.317 253.111 271.303C252.034 271.317 251.33 271.924 251.344 272.821Z" fill="#222B45"/>
<path d="M286.45 280V278.923L289.846 275.499C290.909 274.395 291.448 273.774 291.448 272.932C291.448 271.965 290.661 271.344 289.625 271.358C288.549 271.344 287.858 272.034 287.858 273.07H286.45C286.45 271.289 287.803 270.102 289.681 270.115C291.544 270.102 292.856 271.289 292.856 272.877C292.856 273.967 292.331 274.837 290.509 276.632L288.521 278.647V278.73H293.021V280H286.45ZM298.015 270.115C299.81 270.115 301.688 271.192 301.688 274.782C301.688 278.192 300.224 280.138 297.877 280.138C296.083 280.138 294.826 279.02 294.592 277.432H296.055C296.262 278.261 296.883 278.84 297.877 278.84C299.382 278.84 300.266 277.529 300.279 275.279H300.141C299.631 276.121 298.706 276.618 297.656 276.604C295.903 276.618 294.509 275.279 294.509 273.401C294.509 271.551 295.889 270.088 298.015 270.115ZM295.945 273.373C295.958 274.519 296.801 275.403 297.988 275.417C299.161 275.403 300.072 274.45 300.086 273.373C300.072 272.31 299.203 271.344 298.015 271.358C296.828 271.344 295.945 272.269 295.945 273.373Z" fill="#222B45"/>
<path d="M19.774 330.138C17.7446 330.138 16.3089 329.047 16.2398 327.46H17.7584C17.8136 328.302 18.6558 328.854 19.7464 328.868C20.9336 328.854 21.7895 328.205 21.7895 327.267C21.7895 326.3 20.9888 325.61 19.5807 325.61H18.7524V324.395H19.5807C20.6989 324.395 21.4858 323.774 21.4858 322.849C21.4858 321.952 20.8094 321.344 19.774 321.358C18.7938 321.344 17.9241 321.896 17.8965 322.766H16.4607C16.5021 321.178 17.9655 320.102 19.8016 320.115C21.7067 320.102 22.9216 321.317 22.9216 322.766C22.9216 323.87 22.2313 324.671 21.1821 324.92V325.003C22.5074 325.182 23.2943 326.079 23.2805 327.322C23.2943 328.951 21.7895 330.138 19.774 330.138ZM28.3059 330.138C26.0557 330.138 24.7304 328.316 24.7166 325.113C24.7304 321.952 26.0695 320.102 28.3059 320.115C30.5562 320.102 31.8953 321.952 31.8953 325.113C31.8953 328.316 30.57 330.138 28.3059 330.138ZM26.2075 325.113C26.2075 327.556 26.9944 328.854 28.3059 328.868C29.6312 328.854 30.4181 327.556 30.4043 325.113C30.4181 322.697 29.6174 321.358 28.3059 321.358C27.0082 321.358 26.2075 322.697 26.2075 325.113Z" fill="#222B45"/>
<path d="M65.9334 330.138C63.904 330.138 62.4683 329.047 62.3993 327.46H63.9178C63.9731 328.302 64.8152 328.854 65.9058 328.868C67.093 328.854 67.949 328.205 67.949 327.267C67.949 326.3 67.1483 325.61 65.7401 325.61H64.9118V324.395H65.7401C66.8584 324.395 67.6453 323.774 67.6453 322.849C67.6453 321.952 66.9688 321.344 65.9334 321.358C64.9532 321.344 64.0835 321.896 64.0559 322.766H62.6202C62.6616 321.178 64.1249 320.102 65.961 320.115C67.8661 320.102 69.081 321.317 69.081 322.766C69.081 323.87 68.3907 324.671 67.3415 324.92V325.003C68.6668 325.182 69.4537 326.079 69.4399 327.322C69.4537 328.951 67.949 330.138 65.9334 330.138ZM74.7691 320.226V330H73.2781V321.717H73.2229L70.9036 323.235V321.827L73.3333 320.226H74.7691Z" fill="#222B45"/>
<path d="M115.462 320.226V330H113.971V321.717H113.915L111.596 323.235V321.827L114.026 320.226H115.462Z" fill="#8F9BB3"/>
<path d="M155.757 330V328.923L159.154 325.499C160.217 324.395 160.755 323.774 160.755 322.932C160.755 321.965 159.968 321.344 158.933 321.358C157.856 321.344 157.166 322.034 157.166 323.07H155.757C155.757 321.289 157.11 320.102 158.988 320.115C160.852 320.102 162.163 321.289 162.163 322.877C162.163 323.967 161.639 324.837 159.816 326.632L157.828 328.647V328.73H162.329V330H155.757Z" fill="#8F9BB3"/>
<path d="M204.027 330.138C201.998 330.138 200.562 329.047 200.493 327.46H202.012C202.067 328.302 202.909 328.854 204 328.868C205.187 328.854 206.043 328.205 206.043 327.267C206.043 326.3 205.242 325.61 203.834 325.61H203.006V324.395H203.834C204.952 324.395 205.739 323.774 205.739 322.849C205.739 321.952 205.063 321.344 204.027 321.358C203.047 321.344 202.178 321.896 202.15 322.766H200.714C200.756 321.178 202.219 320.102 204.055 320.115C205.96 320.102 207.175 321.317 207.175 322.766C207.175 323.87 206.485 324.671 205.436 324.92V325.003C206.761 325.182 207.548 326.079 207.534 327.322C207.548 328.951 206.043 330.138 204.027 330.138Z" fill="#8F9BB3"/>
<path d="M245.288 328.095V326.908L249.595 320.226H251.417V326.852H252.743V328.095H251.417V330H250.009V328.095H245.288ZM246.834 326.852H250.009V321.993H249.926L246.834 326.77V326.852Z" fill="#8F9BB3"/>
<path d="M294.011 330.138C292.147 330.138 290.753 329.006 290.697 327.46H292.133C292.216 328.288 293.003 328.896 294.011 328.896C295.184 328.896 296.026 328.04 296.026 326.88C296.026 325.679 295.157 324.823 293.928 324.809C293.141 324.809 292.547 325.072 292.216 325.665H290.808L291.443 320.226H296.965V321.524H292.685L292.354 324.229H292.437C292.851 323.857 293.528 323.581 294.287 323.594C296.109 323.581 297.476 324.947 297.462 326.825C297.476 328.758 296.026 330.138 294.011 330.138Z" fill="#8F9BB3"/>
<circle cx="18.5" cy="142" r="1.42308" stroke="#00B383" stroke-width="1.15385"/>
<circle cx="24.5" cy="142" r="1.42308" stroke="#735BF2" stroke-width="1.15385"/>
<circle cx="30.5" cy="142" r="1.42308" stroke="#0095FF" stroke-width="1.15385"/>
<circle cx="66.5" cy="142" r="1.42308" stroke="#0095FF" stroke-width="1.15385"/>
<circle cx="72.5" cy="142" r="1.42308" stroke="#FF4DE2" stroke-width="1.15385"/>
<circle cx="111.5" cy="142" r="1.42308" stroke="#735BF2" stroke-width="1.15385"/>
<circle cx="117.5" cy="142" r="1.42308" stroke="#FFCD29" stroke-width="1.15385"/>
<g opacity="0.3">
<circle cx="156.5" cy="142" r="1.42308" stroke="#00B383" stroke-width="1.15385"/>
<circle cx="162.5" cy="142" r="1.42308" stroke="#0095FF" stroke-width="1.15385"/>
</g>
<g opacity="0.3">
<path d="M202.925 142C202.925 142.791 202.29 143.425 201.515 143.425C200.741 143.425 200.105 142.791 200.105 142C200.105 141.209 200.741 140.575 201.515 140.575C202.29 140.575 202.925 141.209 202.925 142Z" stroke="#735BF2" stroke-width="1.1494"/>
<path d="M208.895 142C208.895 142.791 208.259 143.425 207.485 143.425C206.71 143.425 206.075 142.791 206.075 142C206.075 141.209 206.71 140.575 207.485 140.575C208.259 140.575 208.895 141.209 208.895 142Z" stroke="#FF4DE2" stroke-width="1.1494"/>
</g>
<g opacity="0.3">
<circle cx="246.5" cy="142" r="1.42308" stroke="#00B383" stroke-width="1.15385"/>
<circle cx="252.5" cy="142" r="1.42308" stroke="#0095FF" stroke-width="1.15385"/>
</g>
<g opacity="0.3">
<circle cx="288.5" cy="142" r="1.42308" stroke="#00B383" stroke-width="1.15385"/>
<circle cx="294.5" cy="142" r="1.42308" stroke="#735BF2" stroke-width="1.15385"/>
<circle cx="300.5" cy="142" r="1.42308" stroke="#FFCD29" stroke-width="1.15385"/>
</g>
<circle cx="288.5" cy="92" r="1.42308" stroke="#00B383" stroke-width="1.15385"/>
<circle cx="294.5" cy="92" r="1.42308" stroke="#735BF2" stroke-width="1.15385"/>
<circle cx="300.5" cy="92" r="1.42308" stroke="#FFCD29" stroke-width="1.15385"/>
<g opacity="0.3">
<circle cx="18.5" cy="192" r="1.42308" stroke="#00B383" stroke-width="1.15385"/>
<circle cx="24.5" cy="192" r="1.42308" stroke="#735BF2" stroke-width="1.15385"/>
<circle cx="30.5" cy="192" r="1.42308" stroke="#0095FF" stroke-width="1.15385"/>
<circle cx="66.5" cy="192" r="1.42308" stroke="#0095FF" stroke-width="1.15385"/>
<circle cx="72.5" cy="192" r="1.42308" stroke="#FF4DE2" stroke-width="1.15385"/>
<circle cx="111.5" cy="192" r="1.42308" stroke="#735BF2" stroke-width="1.15385"/>
<circle cx="117.5" cy="192" r="1.42308" stroke="#FFCD29" stroke-width="1.15385"/>
<circle cx="156.5" cy="192" r="1.42308" stroke="#00B383" stroke-width="1.15385"/>
<circle cx="162.5" cy="192" r="1.42308" stroke="#0095FF" stroke-width="1.15385"/>
<circle cx="201.5" cy="192" r="1.42308" stroke="#735BF2" stroke-width="1.15385"/>
<circle cx="207.5" cy="192" r="1.42308" stroke="#FF4DE2" stroke-width="1.15385"/>
<circle cx="246.5" cy="192" r="1.42308" stroke="#00B383" stroke-width="1.15385"/>
<circle cx="252.5" cy="192" r="1.42308" stroke="#0095FF" stroke-width="1.15385"/>
<circle cx="288.5" cy="192" r="1.42308" stroke="#00B383" stroke-width="1.15385"/>
<circle cx="294.5" cy="192" r="1.42308" stroke="#735BF2" stroke-width="1.15385"/>
<circle cx="300.5" cy="192" r="1.42308" stroke="#FFCD29" stroke-width="1.15385"/>
</g>
<g opacity="0.3">
<circle cx="18.5" cy="242" r="1.42308" stroke="#00B383" stroke-width="1.15385"/>
<circle cx="24.5" cy="242" r="1.42308" stroke="#735BF2" stroke-width="1.15385"/>
<circle cx="30.5" cy="242" r="1.42308" stroke="#0095FF" stroke-width="1.15385"/>
<circle cx="66.5" cy="242" r="1.42308" stroke="#0095FF" stroke-width="1.15385"/>
<circle cx="72.5" cy="242" r="1.42308" stroke="#FF4DE2" stroke-width="1.15385"/>
<circle cx="111.5" cy="242" r="1.42308" stroke="#735BF2" stroke-width="1.15385"/>
<circle cx="117.5" cy="242" r="1.42308" stroke="#FFCD29" stroke-width="1.15385"/>
<circle cx="156.5" cy="242" r="1.42308" stroke="#00B383" stroke-width="1.15385"/>
<circle cx="162.5" cy="242" r="1.42308" stroke="#0095FF" stroke-width="1.15385"/>
<circle cx="201.5" cy="242" r="1.42308" stroke="#735BF2" stroke-width="1.15385"/>
<circle cx="207.5" cy="242" r="1.42308" stroke="#FF4DE2" stroke-width="1.15385"/>
<circle cx="246.5" cy="242" r="1.42308" stroke="#00B383" stroke-width="1.15385"/>
<circle cx="252.5" cy="242" r="1.42308" stroke="#0095FF" stroke-width="1.15385"/>
<circle cx="288.5" cy="242" r="1.42308" stroke="#00B383" stroke-width="1.15385"/>
<circle cx="294.5" cy="242" r="1.42308" stroke="#735BF2" stroke-width="1.15385"/>
<circle cx="300.5" cy="242" r="1.42308" stroke="#FFCD29" stroke-width="1.15385"/>
</g>
<g opacity="0.3">
<circle cx="18.5" cy="292" r="1.42308" stroke="#00B383" stroke-width="1.15385"/>
<circle cx="24.5" cy="292" r="1.42308" stroke="#735BF2" stroke-width="1.15385"/>
<circle cx="30.5" cy="292" r="1.42308" stroke="#0095FF" stroke-width="1.15385"/>
<circle cx="66.5" cy="292" r="1.42308" stroke="#0095FF" stroke-width="1.15385"/>
<circle cx="72.5" cy="292" r="1.42308" stroke="#FF4DE2" stroke-width="1.15385"/>
<circle cx="111.5" cy="292" r="1.42308" stroke="#735BF2" stroke-width="1.15385"/>
<circle cx="117.5" cy="292" r="1.42308" stroke="#FFCD29" stroke-width="1.15385"/>
<circle cx="156.5" cy="292" r="1.42308" stroke="#00B383" stroke-width="1.15385"/>
<circle cx="162.5" cy="292" r="1.42308" stroke="#0095FF" stroke-width="1.15385"/>
<circle cx="201.5" cy="292" r="1.42308" stroke="#735BF2" stroke-width="1.15385"/>
<circle cx="207.5" cy="292" r="1.42308" stroke="#FF4DE2" stroke-width="1.15385"/>
<circle cx="246.5" cy="292" r="1.42308" stroke="#00B383" stroke-width="1.15385"/>
<circle cx="252.5" cy="292" r="1.42308" stroke="#0095FF" stroke-width="1.15385"/>
<circle cx="288.5" cy="292" r="1.42308" stroke="#00B383" stroke-width="1.15385"/>
<circle cx="294.5" cy="292" r="1.42308" stroke="#735BF2" stroke-width="1.15385"/>
<circle cx="300.5" cy="292" r="1.42308" stroke="#FFCD29" stroke-width="1.15385"/>
</g>
<g opacity="0.3">
<circle cx="18.5" cy="342" r="1.42308" stroke="#00B383" stroke-width="1.15385"/>
<circle cx="24.5" cy="342" r="1.42308" stroke="#735BF2" stroke-width="1.15385"/>
<circle cx="30.5" cy="342" r="1.42308" stroke="#0095FF" stroke-width="1.15385"/>
<circle cx="66.5" cy="342" r="1.42308" stroke="#0095FF" stroke-width="1.15385"/>
<circle cx="72.5" cy="342" r="1.42308" stroke="#FF4DE2" stroke-width="1.15385"/>
</g>
<rect x="8.5" y="366.5" width="302" height="22" rx="11" stroke="#D9D9D9"/>
<circle cx="20.5" cy="377.5" r="1.77885" stroke="#00B383" stroke-width="1.44231"/>
<path d="M36.052 375.83V376.644H29.54V372.838H35.942V373.674H30.574V375.83H36.052ZM28.352 378.646V377.81H37.152V378.646H33.214V381.88H32.224V378.646H28.352ZM45.8448 372.288V381.902H44.8328V372.288H45.8448ZM37.8808 379.02C38.7168 379.02 39.6518 379.02 40.6088 378.998V376.996H38.6288V373.212H39.6408V376.16H43.6668V376.996H41.6428V378.954C42.5118 378.921 43.3918 378.855 44.2168 378.756L44.2828 379.526C42.1488 379.856 39.8498 379.889 38.0128 379.878L37.8808 379.02ZM48.7517 372.706V374.004H51.2597V372.706H52.2717V376.886H47.7397V372.706H48.7517ZM48.7077 378.47V377.656H54.9337V380.076H49.7417V381H55.2637V381.814H48.7297V379.328H53.9217V378.47H48.7077ZM48.7517 376.072H51.2597V374.796H48.7517V376.072ZM53.9217 377.238V372.288H54.9337V374.312H56.3197V375.148H54.9337V377.238H53.9217ZM61.5805 372.816V373.652H58.2805V375.984C60.1175 375.984 61.2065 375.907 62.4605 375.654L62.5705 376.468C61.2395 376.754 60.0625 376.798 58.0385 376.798H57.2905V372.816H61.5805ZM58.2145 378.382V377.568H64.4405V380.032H59.2485V380.956H64.7705V381.792H58.2365V379.262H63.4285V378.382H58.2145ZM63.4285 377.128V372.288H64.4405V374.246H65.8265V375.104H64.4405V377.128H63.4285Z" fill="black"/>
<circle cx="74.5" cy="377.5" r="1.77885" stroke="#735BF2" stroke-width="1.44231"/>
<path d="M86.73 372.86C88.798 372.871 90.294 373.894 90.294 375.434C90.294 376.864 89.04 377.821 87.236 377.964V379.856H91.174V380.714H82.352V379.856H86.224V377.964C84.453 377.821 83.188 376.864 83.188 375.434C83.188 373.894 84.695 372.871 86.73 372.86ZM84.178 375.434C84.178 376.501 85.256 377.172 86.73 377.172C88.226 377.172 89.304 376.501 89.304 375.434C89.304 374.378 88.226 373.696 86.73 373.696C85.256 373.696 84.178 374.378 84.178 375.434ZM99.4268 372.288V374.554H100.813V375.39H99.4268V377.722H98.4148V372.288H99.4268ZM91.8148 377.04C94.1248 376.435 95.4888 375.225 95.6648 373.718H92.2548V372.904H96.7648C96.7648 375.357 95.0928 377.095 92.2328 377.854L91.8148 377.04ZM93.2668 381.792V378.14H99.4268V381.792H93.2668ZM94.2788 380.978H98.4148V378.976H94.2788V380.978ZM104.732 375.126C104.721 376.644 105.722 378.338 107.174 379.02L106.602 379.834C105.513 379.317 104.666 378.228 104.226 376.974C103.786 378.349 102.884 379.526 101.784 380.076L101.19 379.262C102.642 378.569 103.709 376.754 103.72 375.126V374.092H101.542V373.256H106.822V374.092H104.732V375.126ZM107.856 381.902V372.288H108.868V376.094H110.408V376.974H108.868V381.902H107.856ZM118.573 372.728V373.41C118.573 374.125 118.573 375.049 118.331 376.292H119.695V377.128H110.873V376.292H117.319C117.539 375.126 117.561 374.257 117.561 373.564H111.973V372.728H118.573ZM111.797 379.262V378.47H118.617V381.924H117.605V379.262H111.797Z" fill="black"/>
<circle cx="128.5" cy="377.5" r="1.77885" stroke="#FFCD29" stroke-width="1.44231"/>
<path d="M138.926 373.014C140.378 373.014 141.401 374.323 141.412 376.38C141.401 378.459 140.378 379.768 138.926 379.768C137.496 379.768 136.462 378.459 136.484 376.38C136.462 374.323 137.496 373.014 138.926 373.014ZM137.452 376.38C137.441 377.909 138.057 378.855 138.926 378.844C139.828 378.855 140.422 377.909 140.422 376.38C140.422 374.873 139.828 373.927 138.926 373.916C138.057 373.927 137.441 374.873 137.452 376.38ZM142.842 381.902V372.288H143.854V374.642H145.35V375.5H143.854V377.502H145.35V378.338H143.854V381.902H142.842ZM149.005 372.904C150.523 372.904 151.612 373.839 151.623 375.192C151.612 376.391 150.754 377.26 149.511 377.447V378.965C150.413 378.91 151.337 378.833 152.195 378.712L152.283 379.46C150.094 379.856 147.762 379.867 146.035 379.878L145.903 379.02C146.662 379.02 147.553 379.02 148.477 378.998V377.436C147.234 377.249 146.376 376.38 146.387 375.192C146.376 373.839 147.487 372.904 149.005 372.904ZM147.377 375.192C147.377 376.039 148.059 376.611 149.005 376.6C149.929 376.611 150.622 376.039 150.633 375.192C150.622 374.334 149.929 373.784 149.005 373.784C148.059 373.784 147.377 374.334 147.377 375.192ZM152.811 381.924V372.288H153.823V381.924H152.811ZM163.132 374.444V375.28H160.272V376.248H164.166V377.062H155.366V376.248H159.26V375.28H156.532V372.42H157.522V374.444H163.132ZM156.422 378.558V377.766H163.066V380.076H157.478V380.978H163.396V381.792H156.444V379.35H162.054V378.558H156.422ZM172.859 372.288V381.924H171.825V372.288H172.859ZM165.203 376.38C165.203 374.323 166.248 373.014 167.689 373.014C169.13 373.014 170.186 374.323 170.175 376.38C170.186 378.459 169.13 379.768 167.689 379.768C166.248 379.768 165.203 378.459 165.203 376.38ZM166.193 376.38C166.193 377.909 166.809 378.855 167.689 378.844C168.58 378.855 169.196 377.909 169.185 376.38C169.196 374.873 168.58 373.927 167.689 373.916C166.809 373.927 166.193 374.873 166.193 376.38Z" fill="black"/>
<circle cx="182.5" cy="377.5" r="1.77885" stroke="#0095FF" stroke-width="1.44231"/>
<path d="M193.696 374.73C193.685 376.435 194.675 378.184 196.116 378.888L195.478 379.702C194.433 379.152 193.619 378.085 193.19 376.798C192.761 378.162 191.925 379.317 190.836 379.878L190.198 379.064C191.672 378.349 192.673 376.501 192.684 374.73V373.08H193.696V374.73ZM196.842 381.902V372.288H197.854V376.116H199.394V376.996H197.854V381.902H196.842ZM207.823 372.288V381.902H206.811V372.288H207.823ZM199.903 379.306C200.695 379.295 201.608 379.284 202.543 379.262V378.283C201.432 378.14 200.706 377.48 200.717 376.534C200.706 375.456 201.652 374.741 203.049 374.752C204.446 374.741 205.414 375.456 205.403 376.534C205.414 377.469 204.688 378.129 203.577 378.283V379.218C204.468 379.174 205.359 379.108 206.195 378.998L206.283 379.768C204.149 380.12 201.817 380.142 200.057 380.142L199.903 379.306ZM200.123 374.246V373.432H202.543V372.31H203.577V373.432H205.997V374.246H200.123ZM201.663 376.534C201.663 377.15 202.235 377.535 203.049 377.524C203.874 377.535 204.435 377.15 204.435 376.534C204.435 375.929 203.874 375.533 203.049 375.522C202.235 375.533 201.663 375.929 201.663 376.534ZM212.798 373.74C212.776 375.071 213.656 376.281 215.108 376.754L214.558 377.546C213.502 377.172 212.721 376.424 212.303 375.456C211.885 376.567 211.038 377.425 209.872 377.854L209.344 377.018C210.873 376.501 211.764 375.214 211.764 373.784V372.816H212.798V373.74ZM210.906 380.076C210.906 378.91 212.149 378.239 214.162 378.228C216.186 378.239 217.418 378.91 217.418 380.076C217.418 381.242 216.186 381.902 214.162 381.902C212.149 381.902 210.906 381.242 210.906 380.076ZM211.918 380.076C211.918 380.714 212.754 381.088 214.162 381.088C215.57 381.088 216.406 380.714 216.406 380.076C216.406 379.416 215.57 379.031 214.162 379.042C212.754 379.031 211.918 379.416 211.918 380.076ZM214.338 375.082V374.246H216.384V372.288H217.396V377.964H216.384V375.082H214.338ZM220.259 372.706V374.004H222.767V372.706H223.779V376.886H219.247V372.706H220.259ZM220.215 378.47V377.656H226.441V380.076H221.249V381H226.771V381.814H220.237V379.328H225.429V378.47H220.215ZM220.259 376.072H222.767V374.796H220.259V376.072ZM225.429 377.238V372.288H226.441V374.312H227.827V375.148H226.441V377.238H225.429ZM233.087 372.816V373.652H229.787V375.984C231.624 375.984 232.713 375.907 233.967 375.654L234.077 376.468C232.746 376.754 231.569 376.798 229.545 376.798H228.797V372.816H233.087ZM229.721 378.382V377.568H235.947V380.032H230.755V380.956H236.277V381.792H229.743V379.262H234.935V378.382H229.721ZM234.935 377.128V372.288H235.947V374.246H237.333V375.104H235.947V377.128H234.935Z" fill="black"/>
<circle cx="245.5" cy="377.5" r="1.77885" stroke="#FF4DE2" stroke-width="1.44231"/>
<path d="M261.602 372.288V381.902H260.634V376.93H259.402V381.418H258.456V372.486H259.402V376.094H260.634V372.288H261.602ZM253.682 379.592V373.454H257.29V374.268H254.694V378.734C255.882 378.723 256.773 378.679 257.796 378.47L257.884 379.306C256.718 379.559 255.728 379.592 254.32 379.592H253.682ZM270.559 372.86V373.63C270.559 374.444 270.559 375.401 270.317 376.666H271.681V377.502H262.859V376.666H269.294C269.547 375.401 269.547 374.477 269.547 373.674H263.959V372.86H270.559ZM264.003 381.704V378.492H265.015V380.868H270.845V381.704H264.003ZM281.144 376.886V377.7H278.878V378.822H280.066V381.902H279.032V379.614H273.334V378.822H274.61V377.7H272.366V376.886H281.144ZM273.312 374.356C273.312 373.201 274.643 372.497 276.744 372.508C278.856 372.497 280.187 373.201 280.176 374.356C280.187 375.522 278.856 376.226 276.744 376.226C274.643 376.226 273.312 375.522 273.312 374.356ZM274.368 374.356C274.357 375.038 275.27 375.423 276.744 375.434C278.229 375.423 279.142 375.038 279.142 374.356C279.142 373.696 278.229 373.3 276.744 373.3C275.27 373.3 274.357 373.696 274.368 374.356ZM275.622 378.822H277.866V377.7H275.622V378.822ZM283.259 372.706V374.004H285.767V372.706H286.779V376.886H282.247V372.706H283.259ZM283.215 378.47V377.656H289.441V380.076H284.249V381H289.771V381.814H283.237V379.328H288.429V378.47H283.215ZM283.259 376.072H285.767V374.796H283.259V376.072ZM288.429 377.238V372.288H289.441V374.312H290.827V375.148H289.441V377.238H288.429ZM296.087 372.816V373.652H292.787V375.984C294.624 375.984 295.713 375.907 296.967 375.654L297.077 376.468C295.746 376.754 294.569 376.798 292.545 376.798H291.797V372.816H296.087ZM292.721 378.382V377.568H298.947V380.032H293.755V380.956H299.277V381.792H292.743V379.262H297.935V378.382H292.721ZM297.935 377.128V372.288H298.947V374.246H300.333V375.104H298.947V377.128H297.935Z" fill="black"/>
<defs>
<clipPath id="clip0_8_70">
<rect width="11.8162" height="7.39793" fill="white" transform="matrix(0 1 -1 0 105 1.5918)"/>
</clipPath>
<clipPath id="clip1_8_70">
<rect width="11.8162" height="7.39793" fill="white" transform="matrix(0 -1 1 0 213 13.4082)"/>
</clipPath>
</defs>
</svg>
