<svg width="324" height="190" viewBox="0 0 324 190" fill="none" xmlns="http://www.w3.org/2000/svg">
<rect width="324" height="90" rx="15" fill="white"/>
<path fill-rule="evenodd" clip-rule="evenodd" d="M19 22.3846C17.8336 22.3846 16.8846 23.3336 16.8846 24.5C16.8846 25.6664 17.8336 26.6154 19 26.6154C20.1664 26.6154 21.1154 25.6664 21.1154 24.5C21.1154 23.3336 20.1664 22.3846 19 22.3846ZM19 19.5C21.7614 19.5 24 21.7386 24 24.5C24 27.2614 21.7614 29.5 19 29.5C16.2386 29.5 14 27.2614 14 24.5C14 21.7386 16.2386 19.5 19 19.5Z" fill="#735BF2"/>
<path d="M31.556 20.1678V28H30.5716V21.1847H30.5283L28.6244 22.4504V21.466L30.5716 20.1678H31.556ZM37.0407 28.1082C35.4829 28.1082 34.3687 27.2752 34.3146 26.0311H35.299C35.3531 26.7776 36.0995 27.2427 37.0299 27.2427C38.0576 27.2427 38.8148 26.6802 38.8148 25.8689C38.8148 25.0143 38.1333 24.4085 36.9109 24.4085H36.2726V23.5538H36.9109C37.8629 23.5538 38.5228 23.0238 38.5228 22.2124C38.5228 21.4335 37.9494 20.9034 37.0623 20.9034C36.2294 20.9034 35.4613 21.3686 35.418 22.1367H34.4769C34.5309 20.8926 35.6776 20.0597 37.0732 20.0597C38.566 20.0597 39.4747 21.0333 39.4639 22.1583C39.4747 23.0454 38.9555 23.7053 38.1333 23.9325V23.9866C39.1502 24.1488 39.7776 24.8736 39.7668 25.8689C39.7776 27.1562 38.5985 28.1082 37.0407 28.1082ZM42.5362 26.9615C42.1576 26.9615 41.833 26.6478 41.8439 26.2583C41.833 25.8797 42.1576 25.566 42.5362 25.566C42.9148 25.566 43.2285 25.8797 43.2285 26.2583C43.2285 26.6478 42.9148 26.9615 42.5362 26.9615ZM42.5362 22.6127C42.1576 22.6127 41.833 22.299 41.8439 21.9095C41.833 21.5309 42.1576 21.2172 42.5362 21.2172C42.9148 21.2172 43.2285 21.5309 43.2285 21.9095C43.2285 22.299 42.9148 22.6127 42.5362 22.6127ZM47.9343 28.1082C46.1927 28.1082 45.1974 26.6478 45.1974 24.0839C45.1974 21.5417 46.2143 20.0597 47.9343 20.0597C49.6544 20.0597 50.6713 21.5417 50.6713 24.0839C50.6713 26.6478 49.6652 28.1082 47.9343 28.1082ZM47.9343 27.2427C49.0594 27.2427 49.7193 26.1069 49.7193 24.0839C49.7193 22.061 49.0594 20.9034 47.9343 20.9034C46.8093 20.9034 46.1386 22.061 46.1386 24.0839C46.1386 26.1069 46.7985 27.2427 47.9343 27.2427ZM55.2256 28.1082C53.4839 28.1082 52.4887 26.6478 52.4887 24.0839C52.4887 21.5417 53.5056 20.0597 55.2256 20.0597C56.9457 20.0597 57.9625 21.5417 57.9625 24.0839C57.9625 26.6478 56.9565 28.1082 55.2256 28.1082ZM55.2256 27.2427C56.3507 27.2427 57.0106 26.1069 57.0106 24.0839C57.0106 22.061 56.3507 20.9034 55.2256 20.9034C54.1005 20.9034 53.4298 22.061 53.4298 24.0839C53.4298 26.1069 54.0897 27.2427 55.2256 27.2427ZM63.3282 23.662V24.5166H59.899V23.662H63.3282ZM68.2071 20.1678V28H67.2227V21.1847H67.1794L65.2755 22.4504V21.466L67.2227 20.1678H68.2071ZM73.5403 28.1082C72.1232 28.1082 71.0522 27.2319 70.9981 26.0311H71.9393C72.015 26.7343 72.6965 27.2536 73.5403 27.2536C74.5572 27.2536 75.2928 26.5071 75.2928 25.5227C75.2928 24.5058 74.5248 23.7594 73.4754 23.7486C72.8155 23.7377 72.3071 23.9433 72.015 24.4517H71.0739L71.6256 20.1678H75.8662V21.0333H72.4369L72.1448 23.3267H72.2206C72.5667 23.0562 73.0968 22.8723 73.6485 22.8723C75.1414 22.8723 76.2448 23.9757 76.2448 25.5011C76.2448 27.0156 75.0981 28.1082 73.5403 28.1082ZM78.9601 26.9615C78.5815 26.9615 78.2569 26.6478 78.2678 26.2583C78.2569 25.8797 78.5815 25.566 78.9601 25.566C79.3387 25.566 79.6525 25.8797 79.6525 26.2583C79.6525 26.6478 79.3387 26.9615 78.9601 26.9615ZM78.9601 22.6127C78.5815 22.6127 78.2569 22.299 78.2678 21.9095C78.2569 21.5309 78.5815 21.2172 78.9601 21.2172C79.3387 21.2172 79.6525 21.5309 79.6525 21.9095C79.6525 22.299 79.3387 22.6127 78.9601 22.6127ZM84.3583 28.1082C82.6166 28.1082 81.6213 26.6478 81.6213 24.0839C81.6213 21.5417 82.6382 20.0597 84.3583 20.0597C86.0783 20.0597 87.0952 21.5417 87.0952 24.0839C87.0952 26.6478 86.0891 28.1082 84.3583 28.1082ZM84.3583 27.2427C85.4833 27.2427 86.1432 26.1069 86.1432 24.0839C86.1432 22.061 85.4833 20.9034 84.3583 20.9034C83.2332 20.9034 82.5625 22.061 82.5625 24.0839C82.5625 26.1069 83.2224 27.2427 84.3583 27.2427ZM91.6495 28.1082C89.9078 28.1082 88.9126 26.6478 88.9126 24.0839C88.9126 21.5417 89.9295 20.0597 91.6495 20.0597C93.3696 20.0597 94.3865 21.5417 94.3865 24.0839C94.3865 26.6478 93.3804 28.1082 91.6495 28.1082ZM91.6495 27.2427C92.7746 27.2427 93.4345 26.1069 93.4345 24.0839C93.4345 22.061 92.7746 20.9034 91.6495 20.9034C90.5245 20.9034 89.8538 22.061 89.8538 24.0839C89.8538 26.1069 90.5136 27.2427 91.6495 27.2427Z" fill="black"/>
<path d="M17.5137 40.0176C17.5137 40.7764 17.7393 41.8223 18.457 42.5742C19.1543 41.8359 19.3867 40.8242 19.4004 40.0176V39.6484H18.6895V38.4316H22.1895V39.6484H20.8359V40.0176C20.8359 41.0703 21.3828 42.3555 22.7363 42.9707L22.0117 44.0371C21.0752 43.6338 20.4873 42.9092 20.1523 42.0684C19.8652 42.9229 19.3525 43.7158 18.4434 44.1738C17.5479 43.7227 17.042 42.9434 16.7617 42.0957C16.4131 42.916 15.8252 43.6338 14.916 44.0371L14.1914 42.9707C15.5312 42.3281 16.0918 41.0566 16.0918 40.0176V39.6484H14.6699V38.4316H18.2383V39.6484H17.5137V40.0176ZM24.4863 37.8574V40.3867H25.8809V41.6445H24.4863V44.3242H22.9688V37.8574H24.4863ZM24.4863 44.8164V47.9609H17.6094V48.9316H24.9102V50.1074H16.0918V46.8672H22.9824V45.9785H16.0781V44.8164H24.4863ZM36.2578 37.8711V40.8242H37.9941V42.082H36.2578V45.2949H34.7402V37.8711H36.2578ZM32.6211 38.623V42.1777H28.5059V43.4766C30.6045 43.4629 32.04 43.3877 33.7285 43.1074L33.8926 44.3242C32.0469 44.6523 30.4473 44.7344 28 44.7207H26.9883V41.0293H31.1309V39.8262H26.9746V38.623H32.6211ZM32.2246 45.5684C34.7676 45.582 36.3672 46.4434 36.3809 47.9062C36.3672 49.3555 34.7676 50.1895 32.2246 50.1895C29.627 50.1895 28.041 49.3555 28.041 47.9062C28.041 46.4434 29.627 45.582 32.2246 45.5684ZM32.2246 46.7578C30.502 46.7578 29.5176 47.168 29.5312 47.9062C29.5176 48.6445 30.502 49.041 32.2246 49.041C33.9336 49.041 34.877 48.6445 34.877 47.9062C34.877 47.168 33.9336 46.7578 32.2246 46.7578ZM53.2246 47.4551V48.6855H41.9316V47.4551H46.7715V44.5977H48.2754V47.4551H53.2246ZM48.3164 39.5117C48.3164 41.3848 50.1895 43.2305 52.7871 43.6406L52.1309 44.8984C50.0391 44.502 48.3301 43.3057 47.5098 41.6855C46.6895 43.2988 44.9941 44.5156 42.916 44.8984L42.2598 43.6406C44.8438 43.2305 46.6895 41.3711 46.7031 39.5117V38.6094H48.3164V39.5117ZM64.3262 37.8574V50.2305H62.8223V37.8574H64.3262ZM60.5254 38.9375V43.5723H56.2734V46.0605C58.2217 46.0469 59.9033 45.9512 61.8242 45.623L61.9609 46.8672C59.8555 47.2363 58.0098 47.3047 55.7949 47.3047H54.7148V42.3691H58.9805V40.168H54.7012V38.9375H60.5254ZM75.8105 37.8574V42.6836H77.6426V43.9551H75.8105V50.1895H74.293V37.8574H75.8105ZM72.543 39.1426C72.543 42.7793 71.0391 45.9648 66.9238 47.9883L66.0625 46.8125C69.0703 45.3154 70.6973 43.21 71.0117 40.4004H66.7324V39.1426H72.543ZM92.2715 37.8574V50.2168H90.8223V43.9551H89.5508V49.6152H88.1152V38.0762H89.5508V42.6973H90.8223V37.8574H92.2715ZM85.3945 41.0156C85.3945 43.2168 86.1328 45.2402 87.9648 46.1836L87.0762 47.3457C85.9004 46.7168 85.1279 45.6299 84.6973 44.2832C84.2734 45.8213 83.501 47.0586 82.2773 47.7832L81.3477 46.6211C83.1797 45.582 83.918 43.4219 83.918 41.0156V40.4277H81.7168V39.2109H87.418V40.4277H85.3945V41.0156ZM100.188 39.0195V47.209H94.3086V39.0195H100.188ZM95.8125 40.209V45.9922H98.7109V40.209H95.8125ZM103.934 37.8574V50.2305H102.402V37.8574H103.934ZM110.141 45.8965C110.141 46.9219 110.612 48.002 111.672 48.6719C112.745 47.9541 113.244 46.833 113.258 45.8965V45.3906H114.748V45.8965C114.734 47.1953 115.5 48.3984 117.127 48.918L116.389 50.0254C115.186 49.6221 114.386 48.8359 113.955 47.8516C113.559 48.8223 112.827 49.6904 111.713 50.1348C110.537 49.7109 109.799 48.877 109.416 47.8926C108.972 48.8428 108.186 49.6152 107.037 50.0254L106.285 48.918C107.885 48.3574 108.65 47.0996 108.664 45.8965V45.3906H110.141V45.8965ZM116.047 37.8711V44.8711H114.516V37.8711H116.047ZM109.307 38.5273C111.207 38.5273 112.629 39.7305 112.629 41.4668C112.629 43.1895 111.207 44.3926 109.307 44.3926C107.393 44.3926 105.971 43.1895 105.971 41.4668C105.971 39.7305 107.393 38.5273 109.307 38.5273ZM109.307 39.8125C108.227 39.8125 107.447 40.4551 107.461 41.4668C107.447 42.4785 108.227 43.1348 109.307 43.1348C110.373 43.1348 111.139 42.4785 111.139 41.4668C111.139 40.4551 110.373 39.8125 109.307 39.8125ZM127.859 41.3574V42.5605H119.301V38.3086H120.805V41.3574H127.859ZM129.131 43.9961V45.1992H117.838V43.9961H129.131ZM127.941 48.6992V49.9297H119.191V46.293H120.709V48.6992H127.941ZM138.838 45.582C141.518 45.5957 143.213 46.4434 143.227 47.9062C143.213 49.3418 141.518 50.2031 138.838 50.2031C136.172 50.2031 134.463 49.3418 134.463 47.9062C134.463 46.4434 136.172 45.5957 138.838 45.582ZM138.838 46.7305C137.061 46.7305 135.98 47.1543 135.994 47.9062C135.98 48.6309 137.061 49.0273 138.838 49.0273C140.629 49.0273 141.709 48.6309 141.723 47.9062C141.709 47.1543 140.629 46.7305 138.838 46.7305ZM143.145 38.4453V39.4707C143.145 40.4414 143.145 41.4805 142.803 42.752L141.299 42.6152C141.606 41.4121 141.627 40.5439 141.627 39.6484H134.586V38.4453H143.145ZM144.512 43.4629V44.6934H133.301V43.4629H137.648V41.2207H139.152V43.4629H144.512ZM155.354 40.4688V41.6855H151.771V42.8066H156.652V44.0234H145.359V42.8066H150.254V41.6855H146.822V38.0215H148.312V40.4688H155.354ZM155.271 44.8164V47.9199H148.244V48.877H155.682V50.0664H146.713V46.8398H153.768V45.9922H146.699V44.8164H155.271ZM167.754 37.8574V50.2305H166.223V37.8574H167.754ZM161.096 38.7598C162.955 38.7598 164.309 40.4551 164.322 43.1211C164.309 45.8145 162.955 47.4961 161.096 47.4961C159.223 47.4961 157.869 45.8145 157.869 43.1211C157.869 40.4551 159.223 38.7598 161.096 38.7598ZM161.096 40.127C160.043 40.127 159.332 41.2344 159.332 43.1211C159.332 45.0215 160.043 46.1289 161.096 46.1289C162.135 46.1289 162.846 45.0215 162.846 43.1211C162.846 41.2344 162.135 40.127 161.096 40.127Z" fill="black"/>
<path d="M19.8945 60.5039V67.4062H14.9727V60.5039H19.8945ZM16.0742 66.5039H18.8164V61.3828H16.0742V66.5039ZM21.9688 70.0195V59.4961H23.082V70.0195H21.9688ZM33.4531 59.4961V70.0195H32.3398V59.4961H33.4531ZM25.4258 67.4414V60.4688H30.4531V61.3945H26.5508V66.4922C28.5371 66.4863 29.8145 66.4277 31.2969 66.1641L31.4141 67.0898C29.8438 67.377 28.4727 67.4355 26.293 67.4414H25.4258ZM37.9766 60.2812C39.4062 60.2871 40.4434 61.4941 40.6133 63.4336H42.7812V59.4961H43.8828V70.0195H42.7812V64.3359H40.625C40.502 66.3867 39.4414 67.6582 37.9766 67.6523C36.4121 67.6582 35.3047 66.2285 35.3164 63.9609C35.3047 61.7168 36.4121 60.2871 37.9766 60.2812ZM36.3711 63.9609C36.377 65.6309 37.0273 66.6562 37.9766 66.6562C38.9258 66.6562 39.5762 65.6309 39.582 63.9609C39.5762 62.3145 38.9258 61.2832 37.9766 61.2773C37.0273 61.2832 36.377 62.3145 36.3711 63.9609ZM58.0391 67.7461V68.6836H48.4297V67.7461H58.0391ZM49.25 61.418V60.5039H57.1602V61.418H55.5547V64.9219H57.125V65.8125H49.2734V64.9219H50.8438V61.418H49.25ZM51.9453 64.9219H54.4648V61.418H51.9453V64.9219ZM68.4102 67.8047V68.7422H58.8008V67.8047H63.0312V65.9648H59.9727V62.625H66.1367V61.1484H59.9492V60.2344H67.2383V63.5156H61.0742V65.0508H67.4844V65.9648H64.1328V67.8047H68.4102ZM77.4922 60.5625V61.6875C77.4922 63.0469 77.4922 64.5176 77.1055 66.7617L75.9688 66.6562C76.3906 64.5527 76.3906 63.0117 76.3906 61.6875V61.4766H70.2031V60.5625H77.4922ZM69.1719 68.5078V67.582H78.7461V68.5078H69.1719ZM88.4961 59.5078V65.7422H87.4414V63.0117H86.1523V65.625H85.1094V59.6953H86.1523V62.0977H87.4414V59.5078H88.4961ZM79.9883 61.0547V60.1641H83.9727V63.1172H81.0898V64.4297C82.3906 64.4238 83.3809 64.3652 84.5352 64.1367L84.6523 65.0273C83.3281 65.2734 82.2383 65.3086 80.7031 65.3086H80.0117V62.2617H82.9062V61.0547H79.9883ZM81.4766 69.8672V66.2109H88.4961V69.8672H81.4766ZM82.5898 68.9648H87.4062V67.1016H82.5898V68.9648Z" fill="#666666"/>
<rect y="100" width="324" height="90" rx="15" fill="white"/>
<path fill-rule="evenodd" clip-rule="evenodd" d="M19 122.385C17.8336 122.385 16.8846 123.334 16.8846 124.5C16.8846 125.666 17.8336 126.615 19 126.615C20.1664 126.615 21.1154 125.666 21.1154 124.5C21.1154 123.334 20.1664 122.385 19 122.385ZM19 119.5C21.7614 119.5 24 121.739 24 124.5C24 127.261 21.7614 129.5 19 129.5C16.2386 129.5 14 127.261 14 124.5C14 121.739 16.2386 119.5 19 119.5Z" fill="#FFCD29"/>
<path d="M31.6023 120.168V128H30.6179V121.185H30.5746L28.6707 122.45V121.466L30.6179 120.168H31.6023ZM36.9356 128.108C35.5184 128.108 34.4474 127.232 34.3933 126.031H35.3345C35.4102 126.734 36.0918 127.254 36.9356 127.254C37.9524 127.254 38.6881 126.507 38.6881 125.523C38.6881 124.506 37.92 123.759 36.8706 123.749C36.2108 123.738 35.7023 123.943 35.4102 124.452H34.4691L35.0208 120.168H39.2614V121.033H35.8321L35.54 123.327H35.6158C35.9619 123.056 36.492 122.872 37.0437 122.872C38.5366 122.872 39.64 123.976 39.64 125.501C39.64 127.016 38.4933 128.108 36.9356 128.108ZM42.3553 126.961C41.9767 126.961 41.6522 126.648 41.663 126.258C41.6522 125.88 41.9767 125.566 42.3553 125.566C42.734 125.566 43.0477 125.88 43.0477 126.258C43.0477 126.648 42.734 126.961 42.3553 126.961ZM42.3553 122.613C41.9767 122.613 41.6522 122.299 41.663 121.91C41.6522 121.531 41.9767 121.217 42.3553 121.217C42.734 121.217 43.0477 121.531 43.0477 121.91C43.0477 122.299 42.734 122.613 42.3553 122.613ZM47.7535 128.108C46.0118 128.108 45.0165 126.648 45.0165 124.084C45.0165 121.542 46.0334 120.06 47.7535 120.06C49.4735 120.06 50.4904 121.542 50.4904 124.084C50.4904 126.648 49.4843 128.108 47.7535 128.108ZM47.7535 127.243C48.8785 127.243 49.5384 126.107 49.5384 124.084C49.5384 122.061 48.8785 120.903 47.7535 120.903C46.6284 120.903 45.9577 122.061 45.9577 124.084C45.9577 126.107 46.6176 127.243 47.7535 127.243ZM55.0447 128.108C53.3031 128.108 52.3078 126.648 52.3078 124.084C52.3078 121.542 53.3247 120.06 55.0447 120.06C56.7648 120.06 57.7817 121.542 57.7817 124.084C57.7817 126.648 56.7756 128.108 55.0447 128.108ZM55.0447 127.243C56.1698 127.243 56.8297 126.107 56.8297 124.084C56.8297 122.061 56.1698 120.903 55.0447 120.903C53.9197 120.903 53.249 122.061 53.249 124.084C53.249 126.107 53.9089 127.243 55.0447 127.243ZM63.1474 123.662V124.517H59.7181V123.662H63.1474ZM68.0262 120.168V128H67.0418V121.185H66.9985L65.0946 122.45V121.466L67.0418 120.168H68.0262ZM71.0552 128L74.6468 121.087V121.033H70.5035V120.168H75.6529V121.077L72.0721 128H71.0552ZM77.9138 126.961C77.5352 126.961 77.2106 126.648 77.2215 126.258C77.2106 125.88 77.5352 125.566 77.9138 125.566C78.2924 125.566 78.6062 125.88 78.6062 126.258C78.6062 126.648 78.2924 126.961 77.9138 126.961ZM77.9138 122.613C77.5352 122.613 77.2106 122.299 77.2215 121.91C77.2106 121.531 77.5352 121.217 77.9138 121.217C78.2924 121.217 78.6062 121.531 78.6062 121.91C78.6062 122.299 78.2924 122.613 77.9138 122.613ZM83.3119 128.108C81.5703 128.108 80.575 126.648 80.575 124.084C80.575 121.542 81.5919 120.06 83.3119 120.06C85.032 120.06 86.0489 121.542 86.0489 124.084C86.0489 126.648 85.0428 128.108 83.3119 128.108ZM83.3119 127.243C84.437 127.243 85.0969 126.107 85.0969 124.084C85.0969 122.061 84.437 120.903 83.3119 120.903C82.1869 120.903 81.5162 122.061 81.5162 124.084C81.5162 126.107 82.1761 127.243 83.3119 127.243ZM90.6032 128.108C88.8615 128.108 87.8663 126.648 87.8663 124.084C87.8663 121.542 88.8832 120.06 90.6032 120.06C92.3233 120.06 93.3402 121.542 93.3402 124.084C93.3402 126.648 92.3341 128.108 90.6032 128.108ZM90.6032 127.243C91.7283 127.243 92.3882 126.107 92.3882 124.084C92.3882 122.061 91.7283 120.903 90.6032 120.903C89.4782 120.903 88.8074 122.061 88.8074 124.084C88.8074 126.107 89.4673 127.243 90.6032 127.243Z" fill="black"/>
<path d="M17.7324 138.76C19.5918 138.76 20.9316 140.455 20.9453 143.121C20.9316 145.814 19.5918 147.496 17.7324 147.496C15.8594 147.496 14.5059 145.814 14.5195 143.121C14.5059 140.455 15.8594 138.76 17.7324 138.76ZM17.7324 140.127C16.6934 140.127 15.9824 141.234 15.9824 143.121C15.9824 145.021 16.6934 146.129 17.7324 146.129C18.7852 146.129 19.4824 145.021 19.4824 143.121C19.4824 141.234 18.7852 140.127 17.7324 140.127ZM24.0898 137.857V142.602H25.9902V143.887H24.0898V150.217H22.5723V137.857H24.0898ZM36.791 137.857V150.23H35.2598V137.857H36.791ZM30.1328 138.76C31.9922 138.76 33.3457 140.455 33.3594 143.121C33.3457 145.814 31.9922 147.496 30.1328 147.496C28.2598 147.496 26.9062 145.814 26.9062 143.121C26.9062 140.455 28.2598 138.76 30.1328 138.76ZM30.1328 140.127C29.0801 140.127 28.3691 141.234 28.3691 143.121C28.3691 145.021 29.0801 146.129 30.1328 146.129C31.1719 146.129 31.8828 145.021 31.8828 143.121C31.8828 141.234 31.1719 140.127 30.1328 140.127ZM43.3672 139.143V143.682H40.4414V146.006C41.7197 145.992 42.9297 145.938 44.3242 145.678L44.4473 146.922C42.793 147.223 41.3984 147.264 39.8398 147.264H38.9785V142.479H41.9043V140.359H38.9648V139.143H43.3672ZM49.2461 137.857V150.217H47.7969V137.857H49.2461ZM46.7031 138.117V149.588H45.2676V143.395H43.9141V142.15H45.2676V138.117H46.7031ZM61.0039 137.871V146.799H59.4727V137.871H61.0039ZM61.3457 148.74V149.971H52.8281V145.896H54.3594V148.74H61.3457ZM54.2637 138.678C56.1367 138.678 57.5859 139.977 57.5859 141.768C57.5859 143.6 56.1367 144.871 54.2637 144.871C52.377 144.871 50.9277 143.6 50.9277 141.768C50.9277 139.977 52.377 138.678 54.2637 138.678ZM54.2637 140.004C53.2109 140.004 52.4043 140.701 52.418 141.768C52.4043 142.861 53.2109 143.545 54.2637 143.545C55.2891 143.545 56.0957 142.861 56.0957 141.768C56.0957 140.701 55.2891 140.004 54.2637 140.004ZM76.6992 137.857V147.113H75.25V137.857H76.6992ZM74.2246 138.076V146.744H72.7754V142.041H71.1211V140.797H72.7754V138.076H74.2246ZM77.041 148.74V149.971H68.4277V146.006H69.9453V148.74H77.041ZM69.9453 140.387C69.9453 141.822 70.6562 143.271 72.2285 143.969L71.3809 145.145C70.3418 144.666 69.6309 143.832 69.2207 142.82C68.7832 143.955 68.0107 144.912 66.8828 145.445L66.0488 144.297C67.6895 143.504 68.4688 141.85 68.4688 140.387V138.705H69.9453V140.387ZM88.5938 137.857V150.23H87.0898V143.559H84.7656V142.328H87.0898V137.857H88.5938ZM84.5742 138.924V140.168H80.3223V142.383H84.082V143.586H80.3223V146.129C82.2021 146.122 83.6104 146.061 85.2031 145.801L85.3535 147.031C83.5488 147.305 81.9766 147.373 79.7617 147.387H78.791V138.924H84.5742ZM103.783 138.992V140.25C103.783 141.781 103.783 143.449 103.332 145.869L101.842 145.719C102.266 143.436 102.266 141.74 102.266 140.25V140.209H94.7871V138.992H103.783ZM104.918 147.373V148.617H93.6523V147.373H96.1816V143.436H97.6992V147.373H99.2715V143.436H100.762V147.373H104.918ZM117.018 143.695V144.912H114.201V146.197H115.637V150.217H114.119V147.387H106.996V146.197H108.527V144.912H105.752V143.695H117.018ZM111.371 138.117C114.078 138.117 115.814 139.033 115.828 140.523C115.814 142.027 114.078 142.943 111.371 142.943C108.664 142.943 106.914 142.027 106.914 140.523C106.914 139.033 108.664 138.117 111.371 138.117ZM111.371 139.307C109.566 139.307 108.486 139.744 108.5 140.523C108.486 141.33 109.566 141.768 111.371 141.768C113.176 141.768 114.256 141.33 114.256 140.523C114.256 139.744 113.176 139.307 111.371 139.307ZM110.045 146.197H112.697V144.912H110.045V146.197Z" fill="black"/>
<path d="M19.168 160.129C21.4121 160.135 23.0469 161.242 23.0469 162.918C23.0469 164.488 21.6758 165.537 19.7188 165.695V167.758H23.9961V168.684H14.3867V167.758H18.6172V165.695C16.6719 165.537 15.2949 164.488 15.3008 162.918C15.2949 161.242 16.9355 160.135 19.168 160.129ZM16.3789 162.918C16.3789 164.096 17.5508 164.828 19.168 164.84C20.7969 164.828 21.9629 164.096 21.9688 162.918C21.9629 161.781 20.7969 161.031 19.168 161.043C17.5508 161.031 16.3789 161.781 16.3789 162.918ZM34.3672 167.746V168.684H24.7578V167.746H34.3672ZM25.5781 161.418V160.504H33.4883V161.418H31.8828V164.922H33.4531V165.812H25.6016V164.922H27.1719V161.418H25.5781ZM28.2734 164.922H30.793V161.418H28.2734V164.922ZM43.3086 159.496V163.598H44.9961V164.535H43.3086V170.02H42.207V159.496H43.3086ZM35.5391 161.348V160.445H40.3438V164.301H36.6641V166.574C38.4629 166.568 39.8047 166.504 41.3398 166.223L41.4453 167.125C39.8047 167.43 38.3867 167.5 36.418 167.512H35.5625V163.398H39.2422V161.348H35.5391ZM54.207 159.508V167.137H53.0938V159.508H54.207ZM45.7109 162.812C45.7168 161.295 46.9238 160.217 48.5117 160.211C50.0938 160.217 51.3008 161.295 51.3008 162.812C51.3008 164.354 50.0938 165.426 48.5117 165.426C46.9238 165.426 45.7168 164.354 45.7109 162.812ZM46.8008 162.812C46.7949 163.803 47.5332 164.453 48.5117 164.453C49.4727 164.453 50.2109 163.803 50.2109 162.812C50.2109 161.846 49.4727 161.184 48.5117 161.184C47.5332 161.184 46.7949 161.846 46.8008 162.812ZM47.3398 169.773V166.363H48.4648V168.871H54.5234V169.773H47.3398ZM67.2734 161.852V162.754H64.1445V163.809H68.3984V164.711H58.7891V163.809H63.043V162.754H60.0664V159.648H61.1562V161.852H67.2734ZM59.9609 166.352V165.484H67.1914V168.004H61.0977V168.988H67.5547V169.867H59.9844V167.207H66.0898V166.352H59.9609ZM77.8672 159.496V170.02H76.7539V159.496H77.8672ZM69.5352 163.961C69.5352 161.717 70.666 160.287 72.2539 160.281C73.8125 160.287 74.9609 161.717 74.9609 163.961C74.9609 166.229 73.8125 167.658 72.2539 167.652C70.666 167.658 69.5352 166.229 69.5352 163.961ZM70.6133 163.961C70.6074 165.631 71.2754 166.656 72.2539 166.656C73.2148 166.656 73.8828 165.631 73.8828 163.961C73.8828 162.314 73.2148 161.283 72.2539 161.277C71.2754 161.283 70.6074 162.314 70.6133 163.961ZM91.0039 160.504V161.629C90.9922 162.947 90.9922 164.33 90.6172 166.34L89.5273 166.223C89.8965 164.324 89.8965 162.918 89.8906 161.629V161.406H83.457V160.504H91.0039ZM82.4727 168.578V167.652H84.7344V164.254H85.8477V167.652H87.3594V164.254H88.4492V167.652H92.0469V168.578H82.4727ZM102.418 164.5V165.402H99.9453V166.621H101.246V169.996H100.121V167.5H93.9102V166.621H95.293V165.402H92.8438V164.5H102.418ZM93.875 161.758C93.8691 160.486 95.3281 159.725 97.625 159.73C99.916 159.725 101.369 160.486 101.375 161.758C101.369 163.023 99.916 163.791 97.625 163.785C95.3281 163.791 93.8691 163.023 93.875 161.758ZM95.0234 161.758C95.0176 162.49 96.0078 162.918 97.625 162.918C99.2305 162.918 100.232 162.49 100.227 161.758C100.232 161.031 99.2305 160.604 97.625 160.609C96.0078 160.604 95.0176 161.031 95.0234 161.758ZM96.4062 166.621H98.8555V165.402H96.4062V166.621ZM115.754 167.746V168.684H106.145V167.746H115.754ZM106.965 161.418V160.504H114.875V161.418H113.27V164.922H114.84V165.812H106.988V164.922H108.559V161.418H106.965ZM109.66 164.922H112.18V161.418H109.66V164.922ZM126.125 167.805V168.742H116.516V167.805H120.746V165.965H117.688V162.625H123.852V161.148H117.664V160.234H124.953V163.516H118.789V165.051H125.199V165.965H121.848V167.805H126.125ZM135.207 160.562V161.688C135.207 163.047 135.207 164.518 134.82 166.762L133.684 166.656C134.105 164.553 134.105 163.012 134.105 161.688V161.477H127.918V160.562H135.207ZM126.887 168.508V167.582H136.461V168.508H126.887ZM146.211 159.508V165.742H145.156V163.012H143.867V165.625H142.824V159.695H143.867V162.098H145.156V159.508H146.211ZM137.703 161.055V160.164H141.688V163.117H138.805V164.43C140.105 164.424 141.096 164.365 142.25 164.137L142.367 165.027C141.043 165.273 139.953 165.309 138.418 165.309H137.727V162.262H140.621V161.055H137.703ZM139.191 169.867V166.211H146.211V169.867H139.191ZM140.305 168.965H145.121V167.102H140.305V168.965Z" fill="#666666"/>
</svg>
