<svg width="324" height="90" viewBox="0 0 324 90" fill="none" xmlns="http://www.w3.org/2000/svg">
<rect width="324" height="90" rx="15" fill="white"/>
<path fill-rule="evenodd" clip-rule="evenodd" d="M19 22.3846C17.8336 22.3846 16.8846 23.3336 16.8846 24.5C16.8846 25.6664 17.8336 26.6154 19 26.6154C20.1664 26.6154 21.1154 25.6664 21.1154 24.5C21.1154 23.3336 20.1664 22.3846 19 22.3846ZM19 19.5C21.7614 19.5 24 21.7386 24 24.5C24 27.2614 21.7614 29.5 19 29.5C16.2386 29.5 14 27.2614 14 24.5C14 21.7386 16.2386 19.5 19 19.5Z" fill="#735BF2"/>
<path d="M31.556 20.1678V28H30.5716V21.1847H30.5283L28.6244 22.4504V21.466L30.5716 20.1678H31.556ZM37.0407 28.1082C35.4829 28.1082 34.3687 27.2752 34.3146 26.0311H35.299C35.3531 26.7776 36.0995 27.2427 37.0299 27.2427C38.0576 27.2427 38.8148 26.6802 38.8148 25.8689C38.8148 25.0143 38.1333 24.4085 36.9109 24.4085H36.2726V23.5538H36.9109C37.8629 23.5538 38.5228 23.0238 38.5228 22.2124C38.5228 21.4335 37.9494 20.9034 37.0623 20.9034C36.2294 20.9034 35.4613 21.3686 35.418 22.1367H34.4769C34.5309 20.8926 35.6776 20.0597 37.0732 20.0597C38.566 20.0597 39.4747 21.0333 39.4639 22.1583C39.4747 23.0454 38.9555 23.7053 38.1333 23.9325V23.9866C39.1502 24.1488 39.7776 24.8736 39.7668 25.8689C39.7776 27.1562 38.5985 28.1082 37.0407 28.1082ZM42.5362 26.9615C42.1576 26.9615 41.833 26.6478 41.8439 26.2583C41.833 25.8797 42.1576 25.566 42.5362 25.566C42.9148 25.566 43.2285 25.8797 43.2285 26.2583C43.2285 26.6478 42.9148 26.9615 42.5362 26.9615ZM42.5362 22.6127C42.1576 22.6127 41.833 22.299 41.8439 21.9095C41.833 21.5309 42.1576 21.2172 42.5362 21.2172C42.9148 21.2172 43.2285 21.5309 43.2285 21.9095C43.2285 22.299 42.9148 22.6127 42.5362 22.6127ZM47.9343 28.1082C46.1927 28.1082 45.1974 26.6478 45.1974 24.0839C45.1974 21.5417 46.2143 20.0597 47.9343 20.0597C49.6544 20.0597 50.6713 21.5417 50.6713 24.0839C50.6713 26.6478 49.6652 28.1082 47.9343 28.1082ZM47.9343 27.2427C49.0594 27.2427 49.7193 26.1069 49.7193 24.0839C49.7193 22.061 49.0594 20.9034 47.9343 20.9034C46.8093 20.9034 46.1386 22.061 46.1386 24.0839C46.1386 26.1069 46.7985 27.2427 47.9343 27.2427ZM55.2256 28.1082C53.4839 28.1082 52.4887 26.6478 52.4887 24.0839C52.4887 21.5417 53.5056 20.0597 55.2256 20.0597C56.9457 20.0597 57.9625 21.5417 57.9625 24.0839C57.9625 26.6478 56.9565 28.1082 55.2256 28.1082ZM55.2256 27.2427C56.3507 27.2427 57.0106 26.1069 57.0106 24.0839C57.0106 22.061 56.3507 20.9034 55.2256 20.9034C54.1005 20.9034 53.4298 22.061 53.4298 24.0839C53.4298 26.1069 54.0897 27.2427 55.2256 27.2427ZM63.3282 23.662V24.5166H59.899V23.662H63.3282ZM68.2071 20.1678V28H67.2227V21.1847H67.1794L65.2755 22.4504V21.466L67.2227 20.1678H68.2071ZM73.5403 28.1082C72.1232 28.1082 71.0522 27.2319 70.9981 26.0311H71.9393C72.015 26.7343 72.6965 27.2536 73.5403 27.2536C74.5572 27.2536 75.2928 26.5071 75.2928 25.5227C75.2928 24.5058 74.5248 23.7594 73.4754 23.7486C72.8155 23.7377 72.3071 23.9433 72.015 24.4517H71.0739L71.6256 20.1678H75.8662V21.0333H72.4369L72.1448 23.3267H72.2206C72.5667 23.0562 73.0968 22.8723 73.6485 22.8723C75.1414 22.8723 76.2448 23.9757 76.2448 25.5011C76.2448 27.0156 75.0981 28.1082 73.5403 28.1082ZM78.9601 26.9615C78.5815 26.9615 78.2569 26.6478 78.2678 26.2583C78.2569 25.8797 78.5815 25.566 78.9601 25.566C79.3387 25.566 79.6525 25.8797 79.6525 26.2583C79.6525 26.6478 79.3387 26.9615 78.9601 26.9615ZM78.9601 22.6127C78.5815 22.6127 78.2569 22.299 78.2678 21.9095C78.2569 21.5309 78.5815 21.2172 78.9601 21.2172C79.3387 21.2172 79.6525 21.5309 79.6525 21.9095C79.6525 22.299 79.3387 22.6127 78.9601 22.6127ZM84.3583 28.1082C82.6166 28.1082 81.6213 26.6478 81.6213 24.0839C81.6213 21.5417 82.6382 20.0597 84.3583 20.0597C86.0783 20.0597 87.0952 21.5417 87.0952 24.0839C87.0952 26.6478 86.0891 28.1082 84.3583 28.1082ZM84.3583 27.2427C85.4833 27.2427 86.1432 26.1069 86.1432 24.0839C86.1432 22.061 85.4833 20.9034 84.3583 20.9034C83.2332 20.9034 82.5625 22.061 82.5625 24.0839C82.5625 26.1069 83.2224 27.2427 84.3583 27.2427ZM91.6495 28.1082C89.9078 28.1082 88.9126 26.6478 88.9126 24.0839C88.9126 21.5417 89.9295 20.0597 91.6495 20.0597C93.3696 20.0597 94.3865 21.5417 94.3865 24.0839C94.3865 26.6478 93.3804 28.1082 91.6495 28.1082ZM91.6495 27.2427C92.7746 27.2427 93.4345 26.1069 93.4345 24.0839C93.4345 22.061 92.7746 20.9034 91.6495 20.9034C90.5245 20.9034 89.8538 22.061 89.8538 24.0839C89.8538 26.1069 90.5136 27.2427 91.6495 27.2427Z" fill="black"/>
<path d="M17.5137 40.0176C17.5137 40.7764 17.7393 41.8223 18.457 42.5742C19.1543 41.8359 19.3867 40.8242 19.4004 40.0176V39.6484H18.6895V38.4316H22.1895V39.6484H20.8359V40.0176C20.8359 41.0703 21.3828 42.3555 22.7363 42.9707L22.0117 44.0371C21.0752 43.6338 20.4873 42.9092 20.1523 42.0684C19.8652 42.9229 19.3525 43.7158 18.4434 44.1738C17.5479 43.7227 17.042 42.9434 16.7617 42.0957C16.4131 42.916 15.8252 43.6338 14.916 44.0371L14.1914 42.9707C15.5312 42.3281 16.0918 41.0566 16.0918 40.0176V39.6484H14.6699V38.4316H18.2383V39.6484H17.5137V40.0176ZM24.4863 37.8574V40.3867H25.8809V41.6445H24.4863V44.3242H22.9688V37.8574H24.4863ZM24.4863 44.8164V47.9609H17.6094V48.9316H24.9102V50.1074H16.0918V46.8672H22.9824V45.9785H16.0781V44.8164H24.4863ZM36.2578 37.8711V40.8242H37.9941V42.082H36.2578V45.2949H34.7402V37.8711H36.2578ZM32.6211 38.623V42.1777H28.5059V43.4766C30.6045 43.4629 32.04 43.3877 33.7285 43.1074L33.8926 44.3242C32.0469 44.6523 30.4473 44.7344 28 44.7207H26.9883V41.0293H31.1309V39.8262H26.9746V38.623H32.6211ZM32.2246 45.5684C34.7676 45.582 36.3672 46.4434 36.3809 47.9062C36.3672 49.3555 34.7676 50.1895 32.2246 50.1895C29.627 50.1895 28.041 49.3555 28.041 47.9062C28.041 46.4434 29.627 45.582 32.2246 45.5684ZM32.2246 46.7578C30.502 46.7578 29.5176 47.168 29.5312 47.9062C29.5176 48.6445 30.502 49.041 32.2246 49.041C33.9336 49.041 34.877 48.6445 34.877 47.9062C34.877 47.168 33.9336 46.7578 32.2246 46.7578ZM53.2246 47.4551V48.6855H41.9316V47.4551H46.7715V44.5977H48.2754V47.4551H53.2246ZM48.3164 39.5117C48.3164 41.3848 50.1895 43.2305 52.7871 43.6406L52.1309 44.8984C50.0391 44.502 48.3301 43.3057 47.5098 41.6855C46.6895 43.2988 44.9941 44.5156 42.916 44.8984L42.2598 43.6406C44.8438 43.2305 46.6895 41.3711 46.7031 39.5117V38.6094H48.3164V39.5117ZM64.3262 37.8574V50.2305H62.8223V37.8574H64.3262ZM60.5254 38.9375V43.5723H56.2734V46.0605C58.2217 46.0469 59.9033 45.9512 61.8242 45.623L61.9609 46.8672C59.8555 47.2363 58.0098 47.3047 55.7949 47.3047H54.7148V42.3691H58.9805V40.168H54.7012V38.9375H60.5254ZM75.8105 37.8574V42.6836H77.6426V43.9551H75.8105V50.1895H74.293V37.8574H75.8105ZM72.543 39.1426C72.543 42.7793 71.0391 45.9648 66.9238 47.9883L66.0625 46.8125C69.0703 45.3154 70.6973 43.21 71.0117 40.4004H66.7324V39.1426H72.543ZM92.2715 37.8574V50.2168H90.8223V43.9551H89.5508V49.6152H88.1152V38.0762H89.5508V42.6973H90.8223V37.8574H92.2715ZM85.3945 41.0156C85.3945 43.2168 86.1328 45.2402 87.9648 46.1836L87.0762 47.3457C85.9004 46.7168 85.1279 45.6299 84.6973 44.2832C84.2734 45.8213 83.501 47.0586 82.2773 47.7832L81.3477 46.6211C83.1797 45.582 83.918 43.4219 83.918 41.0156V40.4277H81.7168V39.2109H87.418V40.4277H85.3945V41.0156ZM100.188 39.0195V47.209H94.3086V39.0195H100.188ZM95.8125 40.209V45.9922H98.7109V40.209H95.8125ZM103.934 37.8574V50.2305H102.402V37.8574H103.934ZM110.141 45.8965C110.141 46.9219 110.612 48.002 111.672 48.6719C112.745 47.9541 113.244 46.833 113.258 45.8965V45.3906H114.748V45.8965C114.734 47.1953 115.5 48.3984 117.127 48.918L116.389 50.0254C115.186 49.6221 114.386 48.8359 113.955 47.8516C113.559 48.8223 112.827 49.6904 111.713 50.1348C110.537 49.7109 109.799 48.877 109.416 47.8926C108.972 48.8428 108.186 49.6152 107.037 50.0254L106.285 48.918C107.885 48.3574 108.65 47.0996 108.664 45.8965V45.3906H110.141V45.8965ZM116.047 37.8711V44.8711H114.516V37.8711H116.047ZM109.307 38.5273C111.207 38.5273 112.629 39.7305 112.629 41.4668C112.629 43.1895 111.207 44.3926 109.307 44.3926C107.393 44.3926 105.971 43.1895 105.971 41.4668C105.971 39.7305 107.393 38.5273 109.307 38.5273ZM109.307 39.8125C108.227 39.8125 107.447 40.4551 107.461 41.4668C107.447 42.4785 108.227 43.1348 109.307 43.1348C110.373 43.1348 111.139 42.4785 111.139 41.4668C111.139 40.4551 110.373 39.8125 109.307 39.8125ZM127.859 41.3574V42.5605H119.301V38.3086H120.805V41.3574H127.859ZM129.131 43.9961V45.1992H117.838V43.9961H129.131ZM127.941 48.6992V49.9297H119.191V46.293H120.709V48.6992H127.941ZM138.838 45.582C141.518 45.5957 143.213 46.4434 143.227 47.9062C143.213 49.3418 141.518 50.2031 138.838 50.2031C136.172 50.2031 134.463 49.3418 134.463 47.9062C134.463 46.4434 136.172 45.5957 138.838 45.582ZM138.838 46.7305C137.061 46.7305 135.98 47.1543 135.994 47.9062C135.98 48.6309 137.061 49.0273 138.838 49.0273C140.629 49.0273 141.709 48.6309 141.723 47.9062C141.709 47.1543 140.629 46.7305 138.838 46.7305ZM143.145 38.4453V39.4707C143.145 40.4414 143.145 41.4805 142.803 42.752L141.299 42.6152C141.606 41.4121 141.627 40.5439 141.627 39.6484H134.586V38.4453H143.145ZM144.512 43.4629V44.6934H133.301V43.4629H137.648V41.2207H139.152V43.4629H144.512ZM155.354 40.4688V41.6855H151.771V42.8066H156.652V44.0234H145.359V42.8066H150.254V41.6855H146.822V38.0215H148.312V40.4688H155.354ZM155.271 44.8164V47.9199H148.244V48.877H155.682V50.0664H146.713V46.8398H153.768V45.9922H146.699V44.8164H155.271ZM167.754 37.8574V50.2305H166.223V37.8574H167.754ZM161.096 38.7598C162.955 38.7598 164.309 40.4551 164.322 43.1211C164.309 45.8145 162.955 47.4961 161.096 47.4961C159.223 47.4961 157.869 45.8145 157.869 43.1211C157.869 40.4551 159.223 38.7598 161.096 38.7598ZM161.096 40.127C160.043 40.127 159.332 41.2344 159.332 43.1211C159.332 45.0215 160.043 46.1289 161.096 46.1289C162.135 46.1289 162.846 45.0215 162.846 43.1211C162.846 41.2344 162.135 40.127 161.096 40.127Z" fill="black"/>
<path d="M19.8945 60.5039V67.4062H14.9727V60.5039H19.8945ZM16.0742 66.5039H18.8164V61.3828H16.0742V66.5039ZM21.9688 70.0195V59.4961H23.082V70.0195H21.9688ZM33.4531 59.4961V70.0195H32.3398V59.4961H33.4531ZM25.4258 67.4414V60.4688H30.4531V61.3945H26.5508V66.4922C28.5371 66.4863 29.8145 66.4277 31.2969 66.1641L31.4141 67.0898C29.8438 67.377 28.4727 67.4355 26.293 67.4414H25.4258ZM37.9766 60.2812C39.4062 60.2871 40.4434 61.4941 40.6133 63.4336H42.7812V59.4961H43.8828V70.0195H42.7812V64.3359H40.625C40.502 66.3867 39.4414 67.6582 37.9766 67.6523C36.4121 67.6582 35.3047 66.2285 35.3164 63.9609C35.3047 61.7168 36.4121 60.2871 37.9766 60.2812ZM36.3711 63.9609C36.377 65.6309 37.0273 66.6562 37.9766 66.6562C38.9258 66.6562 39.5762 65.6309 39.582 63.9609C39.5762 62.3145 38.9258 61.2832 37.9766 61.2773C37.0273 61.2832 36.377 62.3145 36.3711 63.9609ZM58.0391 67.7461V68.6836H48.4297V67.7461H58.0391ZM49.25 61.418V60.5039H57.1602V61.418H55.5547V64.9219H57.125V65.8125H49.2734V64.9219H50.8438V61.418H49.25ZM51.9453 64.9219H54.4648V61.418H51.9453V64.9219ZM68.4102 67.8047V68.7422H58.8008V67.8047H63.0312V65.9648H59.9727V62.625H66.1367V61.1484H59.9492V60.2344H67.2383V63.5156H61.0742V65.0508H67.4844V65.9648H64.1328V67.8047H68.4102ZM77.4922 60.5625V61.6875C77.4922 63.0469 77.4922 64.5176 77.1055 66.7617L75.9688 66.6562C76.3906 64.5527 76.3906 63.0117 76.3906 61.6875V61.4766H70.2031V60.5625H77.4922ZM69.1719 68.5078V67.582H78.7461V68.5078H69.1719ZM88.4961 59.5078V65.7422H87.4414V63.0117H86.1523V65.625H85.1094V59.6953H86.1523V62.0977H87.4414V59.5078H88.4961ZM79.9883 61.0547V60.1641H83.9727V63.1172H81.0898V64.4297C82.3906 64.4238 83.3809 64.3652 84.5352 64.1367L84.6523 65.0273C83.3281 65.2734 82.2383 65.3086 80.7031 65.3086H80.0117V62.2617H82.9062V61.0547H79.9883ZM81.4766 69.8672V66.2109H88.4961V69.8672H81.4766ZM82.5898 68.9648H87.4062V67.1016H82.5898V68.9648Z" fill="#666666"/>
</svg>
