<svg width="25" height="25" viewBox="0 0 25 25" fill="none" xmlns="http://www.w3.org/2000/svg">
<path d="M20 3.02893H17.75V2.27893C17.75 2.08002 17.671 1.88925 17.5303 1.7486C17.3897 1.60795 17.1989 1.52893 17 1.52893C16.8011 1.52893 16.6103 1.60795 16.4697 1.7486C16.329 1.88925 16.25 2.08002 16.25 2.27893V3.02893H8.75V2.27893C8.75 2.08002 8.67098 1.88925 8.53033 1.7486C8.38968 1.60795 8.19891 1.52893 8 1.52893C7.80109 1.52893 7.61032 1.60795 7.46967 1.7486C7.32902 1.88925 7.25 2.08002 7.25 2.27893V3.02893H5C4.60218 3.02893 4.22064 3.18697 3.93934 3.46827C3.65804 3.74957 3.5 4.13111 3.5 4.52893V19.5289C3.5 19.9268 3.65804 20.3083 3.93934 20.5896C4.22064 20.8709 4.60218 21.0289 5 21.0289H20C20.3978 21.0289 20.7794 20.8709 21.0607 20.5896C21.342 20.3083 21.5 19.9268 21.5 19.5289V4.52893C21.5 4.13111 21.342 3.74957 21.0607 3.46827C20.7794 3.18697 20.3978 3.02893 20 3.02893ZM20 19.5289H5V4.52893H7.25V5.27893C7.25 5.47784 7.32902 5.66861 7.46967 5.80926C7.61032 5.94991 7.80109 6.02893 8 6.02893C8.19891 6.02893 8.38968 5.94991 8.53033 5.80926C8.67098 5.66861 8.75 5.47784 8.75 5.27893V4.52893H16.25V5.27893C16.25 5.47784 16.329 5.66861 16.4697 5.80926C16.6103 5.94991 16.8011 6.02893 17 6.02893C17.1989 6.02893 17.3897 5.94991 17.5303 5.80926C17.671 5.66861 17.75 5.47784 17.75 5.27893V4.52893H20V19.5289ZM14.75 8.27893C14.3241 8.27869 13.9031 8.3694 13.515 8.54498C13.127 8.72056 12.781 8.97697 12.5 9.29706C12.0971 8.84019 11.5646 8.5168 10.9734 8.3699C10.3823 8.22301 9.76038 8.25956 9.19048 8.47469C8.62058 8.68983 8.12967 9.07336 7.78305 9.57428C7.43642 10.0752 7.25049 10.6698 7.25 11.2789C7.25 14.7027 11.9637 17.0989 12.1644 17.2002C12.2686 17.2523 12.3835 17.2795 12.5 17.2795C12.6165 17.2795 12.7314 17.2523 12.8356 17.2002C13.0363 17.0989 17.75 14.7027 17.75 11.2789C17.75 10.4833 17.4339 9.72022 16.8713 9.15761C16.3087 8.595 15.5456 8.27893 14.75 8.27893ZM12.5 15.6786C11.2072 14.9483 8.75 13.1708 8.75 11.2789C8.75 10.8811 8.90804 10.4996 9.18934 10.2183C9.47064 9.93697 9.85218 9.77893 10.25 9.77893C10.6478 9.77893 11.0294 9.93697 11.3107 10.2183C11.592 10.4996 11.75 10.8811 11.75 11.2789C11.75 11.4778 11.829 11.6686 11.9697 11.8093C12.1103 11.9499 12.3011 12.0289 12.5 12.0289C12.6989 12.0289 12.8897 11.9499 13.0303 11.8093C13.171 11.6686 13.25 11.4778 13.25 11.2789C13.25 10.8811 13.408 10.4996 13.6893 10.2183C13.9706 9.93697 14.3522 9.77893 14.75 9.77893C15.1478 9.77893 15.5294 9.93697 15.8107 10.2183C16.092 10.4996 16.25 10.8811 16.25 11.2789C16.25 13.1717 13.7928 14.9492 12.5 15.6786Z" fill="#BBBBBB"/>
</svg>
