<svg width="25" height="25" viewBox="0 0 25 25" fill="none" xmlns="http://www.w3.org/2000/svg">
<path d="M14.1411 13.1539C14.1411 13.3764 14.0752 13.5939 13.9515 13.7789C13.8279 13.9639 13.6522 14.1081 13.4467 14.1933C13.2411 14.2784 13.0149 14.3007 12.7967 14.2573C12.5784 14.2139 12.378 14.1068 12.2206 13.9494C12.0633 13.7921 11.9562 13.5916 11.9128 13.3734C11.8693 13.1552 11.8916 12.929 11.9768 12.7234C12.0619 12.5178 12.2061 12.3421 12.3911 12.2185C12.5761 12.0949 12.7936 12.0289 13.0161 12.0289C13.3145 12.0289 13.6007 12.1475 13.8116 12.3584C14.0226 12.5694 14.1411 12.8556 14.1411 13.1539ZM18.2661 12.0289C18.0436 12.0289 17.8261 12.0949 17.6411 12.2185C17.4561 12.3421 17.3119 12.5178 17.2268 12.7234C17.1416 12.929 17.1193 13.1552 17.1628 13.3734C17.2062 13.5916 17.3133 13.7921 17.4706 13.9494C17.628 14.1068 17.8284 14.2139 18.0467 14.2573C18.2649 14.3007 18.4911 14.2784 18.6967 14.1933C18.9022 14.1081 19.0779 13.9639 19.2015 13.7789C19.3252 13.5939 19.3911 13.3764 19.3911 13.1539C19.3911 12.8556 19.2726 12.5694 19.0616 12.3584C18.8507 12.1475 18.5645 12.0289 18.2661 12.0289ZM23.0793 19.8542C23.1555 20.1128 23.1606 20.3872 23.094 20.6485C23.0275 20.9097 22.8917 21.1482 22.7011 21.3389C22.5105 21.5295 22.272 21.6653 22.0107 21.7318C21.7494 21.7983 21.4751 21.7933 21.2164 21.7171L18.8999 21.0355C17.9866 21.4759 16.9936 21.7267 15.9807 21.7725C14.9678 21.8183 13.9562 21.6582 13.0069 21.302C12.0576 20.9458 11.1904 20.4008 10.4577 19.7C9.725 18.9992 9.142 18.1571 8.74395 17.2246C7.92385 17.1281 7.12566 16.8952 6.38239 16.5355L4.06582 17.2171C3.80721 17.2933 3.53284 17.2983 3.27158 17.2318C3.01032 17.1653 2.77182 17.0295 2.58119 16.8389C2.39055 16.6482 2.25481 16.4097 2.18826 16.1485C2.12171 15.8872 2.12681 15.6128 2.20301 15.3542L2.88457 13.0377C2.45712 12.1383 2.21305 11.1628 2.1666 10.1681C2.12015 9.17337 2.27225 8.17936 2.61403 7.24406C2.95582 6.30876 3.48043 5.45088 4.15727 4.72047C4.83412 3.99007 5.64964 3.40176 6.55626 2.98988C7.46288 2.57799 8.44244 2.35078 9.43781 2.32148C10.4332 2.29219 11.4244 2.46141 12.3537 2.81926C13.283 3.17711 14.1317 3.71644 14.8503 4.40578C15.5689 5.09511 16.1431 5.92065 16.5393 6.83424C17.7239 6.97699 18.8574 7.40033 19.8455 8.06909C20.8337 8.73786 21.6481 9.63274 22.221 10.6794C22.7938 11.7261 23.1087 12.8943 23.1395 14.0872C23.1702 15.28 22.9159 16.4629 22.3977 17.5377L23.0793 19.8542ZM8.26301 15.6196C8.07751 14.6035 8.10402 13.5602 8.34086 12.5549C8.5777 11.5496 9.01977 10.6041 9.63933 9.77779C10.2589 8.95146 11.0425 8.2621 11.9411 7.75297C12.8397 7.24385 13.8339 6.92596 14.8611 6.81924C14.481 6.129 13.9686 5.5204 13.3532 5.02819C12.7378 4.53598 12.0315 4.16979 11.2746 3.95054C9.74596 3.50775 8.10405 3.69034 6.71004 4.45814C5.31604 5.22595 4.28414 6.51607 3.84135 8.04469C3.39856 9.57332 3.58115 11.2152 4.34895 12.6092C4.44129 12.7818 4.46249 12.9837 4.40801 13.1717L3.64114 15.7789L6.24364 15.013C6.43166 14.9585 6.63353 14.9797 6.80614 15.0721C7.26569 15.3176 7.75551 15.5016 8.26301 15.6196ZM20.9333 17.1092C21.6118 15.8404 21.8117 14.37 21.4966 12.9661C21.1815 11.5622 20.3724 10.3183 19.2168 9.46106C18.0612 8.60386 16.636 8.19048 15.2011 8.29627C13.7662 8.40206 12.417 9.01998 11.3996 10.0374C10.3822 11.0548 9.76427 12.4039 9.65848 13.8389C9.55269 15.2738 9.96607 16.699 10.8233 17.8546C11.6805 19.0102 12.9244 19.8193 14.3283 20.1344C15.7322 20.4495 17.2026 20.2496 18.4715 19.5711C18.6441 19.4788 18.8459 19.4576 19.034 19.5121L21.6411 20.2789L20.8752 17.6764C20.8192 17.4871 20.84 17.2833 20.9333 17.1092Z" fill="#BBBBBB"/>
</svg>
