<svg width="25" height="24" viewBox="0 0 25 24" fill="none" xmlns="http://www.w3.org/2000/svg">
<g id="solar:user-circle-bold">
<path id="Vector" fill-rule="evenodd" clip-rule="evenodd" d="M24 12.5C24 18.8514 18.8514 24 12.5 24C6.14855 24 1 18.8514 1 12.5C1 6.14855 6.14855 1 12.5 1C18.8514 1 24 6.14855 24 12.5ZM15.95 9.05C15.95 9.965 15.5865 10.8425 14.9395 11.4895C14.2925 12.1365 13.415 12.5 12.5 12.5C11.585 12.5 10.7075 12.1365 10.0605 11.4895C9.41348 10.8425 9.05 9.965 9.05 9.05C9.05 8.135 9.41348 7.25748 10.0605 6.61048C10.7075 5.96348 11.585 5.6 12.5 5.6C13.415 5.6 14.2925 5.96348 14.9395 6.61048C15.5865 7.25748 15.95 8.135 15.95 9.05ZM12.5 22.275C14.4737 22.2782 16.4017 21.681 18.028 20.5626C18.7226 20.0854 19.0193 19.1769 18.6145 18.4375C17.7785 16.9045 16.0535 15.95 12.5 15.95C8.9465 15.95 7.2215 16.9045 6.3843 18.4375C5.98065 19.1769 6.27735 20.0854 6.97195 20.5626C8.59828 21.681 10.5263 22.2782 12.5 22.275Z" fill="#BBBBBB"/>
</g>
</svg>
